<svg width="26" height="26" viewBox="0 0 26 26" fill="none" xmlns="http://www.w3.org/2000/svg">
<path d="M10.4497 12.3383C9.69402 12.3383 8.95531 12.5624 8.32699 12.9822C7.69866 13.402 7.20894 13.9988 6.91975 14.6969C6.63056 15.3951 6.5549 16.1633 6.70232 16.9045C6.84975 17.6456 7.21365 18.3264 7.74799 18.8608C8.28234 19.3951 8.96314 19.759 9.70431 19.9065C10.4455 20.0539 11.2137 19.9782 11.9119 19.689C12.61 19.3999 13.2068 18.9101 13.6266 18.2818C14.0464 17.6535 14.2705 16.9148 14.2705 16.1591V6.02148C14.8619 8.5578 16.5649 10.3261 19.3739 10.3261" stroke="black" stroke-width="2" stroke-linecap="round" stroke-linejoin="round"/>
<path d="M1.4032 19.2765C1.55501 20.6274 2.16035 21.8869 3.12039 22.8494C4.08043 23.8119 5.33843 24.4204 6.68896 24.5757C8.74336 24.8042 10.8496 25 13 25C15.1504 25 17.2586 24.8042 19.311 24.5738C20.6616 24.4185 21.9196 23.81 22.8796 22.8475C23.8396 21.885 24.445 20.6255 24.5968 19.2746C24.8157 17.2336 25 15.137 25 13C25 10.863 24.8157 8.7664 24.5968 6.72352C24.445 5.3726 23.8396 4.11306 22.8796 3.15058C21.9196 2.1881 20.6616 1.57956 19.311 1.42432C17.2566 1.19776 15.1504 1 13 1C10.8496 1 8.74144 1.19584 6.68896 1.42624C5.33843 1.58148 4.08043 2.19002 3.12039 3.1525C2.16035 4.11498 1.55501 5.37452 1.4032 6.72544C1.18432 8.76448 1 10.8611 1 13C1 15.1389 1.18432 17.2336 1.4032 19.2765Z" stroke="black" stroke-width="2" stroke-linecap="round" stroke-linejoin="round"/>
</svg>
