<svg width="51" height="55" viewBox="0 0 51 55" fill="none" xmlns="http://www.w3.org/2000/svg">
<path d="M28.2768 24.3821C28.2383 24.3437 28.2024 24.3052 28.1613 24.2668C27.7301 24.2745 27.8328 24.6973 27.707 24.9509C27.8969 24.7613 28.0869 24.5717 28.2768 24.3821ZM27.4452 26.2755C27.245 26.1167 27.0679 26.0245 26.9499 25.8784C26.7651 25.6453 26.783 25.6299 26.5161 25.8477C26.6726 26.2474 26.9755 26.355 27.4452 26.2781M25.5921 33.4573C25.6742 33.2395 25.7641 33.032 25.8231 32.8167C25.8282 32.7937 25.6486 32.6733 25.569 32.6861C25.3996 32.7168 25.2379 32.8065 25.0813 32.8705C25.2661 33.0832 25.3868 33.2216 25.5947 33.4573M21.8319 21.679C21.9243 21.2435 21.9629 20.9206 22.063 20.6157C22.2785 19.9598 22.5557 19.3218 22.7534 18.6608C22.9484 18.01 23.0922 17.3464 23.2282 16.6828C23.5054 15.3556 23.7877 14.0284 24.0136 12.691C24.1111 12.1171 23.9854 11.497 24.1214 10.9385C24.4422 9.61382 23.893 8.38399 23.8237 7.10803C23.7954 6.56486 23.5721 6.09342 23.3386 5.62454C23.1024 5.15054 22.8817 4.6663 22.5891 4.22817C22.2657 3.74392 22.1759 3.78748 21.7216 4.11799C20.8104 4.78416 20.487 5.77571 20.2021 6.77495C19.9609 7.62303 19.7735 8.48904 19.6298 9.36017C19.4835 10.239 19.3782 11.1281 19.3372 12.0171C19.3064 12.6884 19.4527 13.3674 19.4424 14.0464C19.4193 15.3736 19.7196 16.6418 20.1123 17.8896C20.4537 18.9657 20.8669 20.0213 21.2852 21.0744C21.3674 21.2819 21.6061 21.4331 21.8319 21.6765M25.8154 31.5126C25.9052 31.4614 26.0746 31.3794 26.0695 31.3666C25.9951 31.1718 25.8949 30.9874 25.8 30.8003C25.6639 31.0232 25.569 31.1744 25.4586 31.3486C25.5716 31.3999 25.6973 31.4537 25.8257 31.5075C25.646 32.0711 26.2286 31.7586 26.3852 31.9456C26.3595 31.8072 26.2928 31.6945 26.1952 31.6356C26.0823 31.5664 25.9437 31.5485 25.8128 31.51M28.8107 33.8903C28.9518 34.3182 28.8646 34.6794 28.59 35.0484C28.4693 35.2072 28.3538 35.466 28.4821 35.7427C28.5258 35.8401 28.3949 36.0194 28.341 36.1604C28.2948 36.1501 28.246 36.1424 28.1998 36.1322C28.1818 35.9938 28.1639 35.8529 28.1408 35.6761C27.9483 35.794 27.7789 35.8913 27.6942 35.9426C27.8174 36.1347 27.9149 36.3064 28.033 36.4678C28.2409 36.7548 28.4565 37.0315 28.6721 37.3133C28.7157 37.3748 28.7901 37.4389 28.7953 37.5055C28.8569 38.164 29.111 38.7738 29.0673 39.4732C29.0109 40.3597 29.2367 41.259 29.3009 42.1558C29.3368 42.6682 29.2958 43.1858 29.2932 43.7008C29.2906 44.0339 29.3035 44.3644 29.2932 44.6949C29.2573 45.9939 29.2367 47.2929 29.1674 48.5919C29.1212 49.481 28.998 50.365 28.9236 51.254C28.9056 51.4846 28.9287 51.7229 28.9364 51.9561C28.939 52.0278 28.9903 52.1252 28.9621 52.1687C28.6207 52.6504 28.921 53.191 28.8132 53.6906C28.7491 53.9879 28.8055 54.3491 28.6515 54.5772C28.5052 54.7949 28.1536 55.005 27.8995 54.9999C27.399 54.9845 26.8985 54.8411 26.4134 54.7053C25.9796 54.5823 25.5562 54.4132 25.1429 54.2364C24.7297 54.057 24.2754 53.1347 24.3293 52.6376C24.3832 52.1585 24.432 51.6768 24.4936 51.1977C24.509 51.0849 24.5885 50.985 24.6065 50.8723C24.6296 50.7109 24.6296 50.5418 24.627 50.3778C24.627 50.2753 24.5757 50.1728 24.5911 50.078C24.8863 48.4792 24.7708 46.8548 24.9402 45.2483C25.0069 44.595 25.0967 43.9416 25.089 43.2883C25.0788 42.2711 25.0018 41.2565 24.9453 40.2393C24.9222 39.773 24.894 39.3092 24.8529 38.8429C24.8401 38.6892 24.7862 38.5406 24.7323 38.3254C24.5398 38.4637 24.4037 38.5637 24.26 38.6559C23.3514 39.2478 22.3787 39.071 21.4008 38.9044C21.1877 38.8686 20.9696 38.8506 20.7514 38.8455C19.4296 38.8173 18.1514 38.5303 16.8758 38.2101C16.3393 38.0743 15.767 38.0794 15.2408 37.9206C14.2373 37.6157 13.2491 37.257 12.266 36.8854C11.437 36.5703 10.6183 36.2321 9.81491 35.8606C8.53415 35.2687 7.22003 34.7255 6.08813 33.8595C5.5209 33.4265 5.01013 32.9218 4.4737 32.4452C4.4198 32.3991 4.36847 32.3069 4.312 32.3017C3.49324 32.2223 3.24941 31.469 2.76944 31.0002C2.40754 30.644 2.07133 30.2623 1.7274 29.8908C1.6812 29.8395 1.65552 29.7678 1.61445 29.7063C1.40399 29.3732 1.404 28.9479 0.990772 28.6814C0.767474 28.5379 0.736682 28.0972 0.613483 27.7898C0.572416 27.6822 0.541596 27.5592 0.464597 27.4746C0.238732 27.2338 0.249015 27.0186 0.577546 26.8085C0.41328 26.747 0.31317 26.706 0.277237 26.6932C0.233604 26.4908 0.210516 26.3217 0.16175 26.1577C-0.0204821 25.5402 -0.1129 24.933 0.238731 24.3642C0.259264 24.1566 0.223336 23.9235 0.308035 23.7493C0.515934 23.3265 0.74179 22.8961 1.03695 22.5322C1.25769 22.2581 1.67606 22.2401 1.94299 21.9352C2.09955 21.7559 2.54103 21.8404 2.84902 21.7764C3.41369 21.6534 3.96807 21.4843 4.53787 21.3844C4.80223 21.3357 5.08712 21.3921 5.36432 21.4612C6.08042 21.2358 6.16512 21.2665 6.72209 21.9634C6.77855 22.0352 6.92999 22.0326 7.07886 21.9788C7.01982 21.9045 6.96078 21.8302 6.91202 21.7713C6.99415 21.6611 7.08913 21.5458 7.17896 21.4254C7.17639 21.4612 7.17639 21.4971 7.17639 21.533C7.57165 21.533 7.96692 21.5099 8.36218 21.5432C8.58548 21.5612 8.80107 21.6867 9.0295 21.7303C9.13987 21.7482 9.2605 21.6893 9.37856 21.6662C9.34263 21.5612 9.3067 21.4612 9.22457 21.2281C9.78153 21.451 10.2846 21.6534 10.7877 21.8558C10.88 21.8917 11.0084 21.9814 11.0546 21.9506C11.4961 21.6611 11.8733 21.9609 12.2609 22.0787C12.7768 22.2376 13.285 22.4246 13.7932 22.6065C14.0524 22.7039 14.2552 22.8371 14.0242 23.1497C14.0884 23.1702 14.1602 23.2061 14.1705 23.1933C14.5247 22.7654 14.8661 23.0985 15.1869 23.2291C15.749 23.4572 16.3111 23.6954 16.8347 23.9952C17.2325 24.2233 17.5611 24.5691 17.9358 24.8433C18.2412 25.0662 18.5723 25.2507 18.8803 25.471C19.1164 25.6401 19.3423 25.8323 19.5707 26.0142L19.5091 26.1372C19.6734 26.0911 19.8351 26.0424 20.0969 25.9655C19.9121 25.6632 19.7247 25.3814 19.563 25.0867C19.4578 24.8971 19.3859 24.6921 19.3038 24.4923C18.9085 23.5699 18.5364 22.6347 18.1103 21.7226C17.5354 20.4876 17.1914 19.1861 16.9271 17.8563C16.7166 16.7904 16.4831 15.722 16.3547 14.6459C16.27 13.9413 16.4394 13.206 16.3393 12.5065C16.2392 11.8327 16.2598 11.2203 16.4625 10.5721C16.5472 10.3056 16.3958 9.97253 16.4163 9.67532C16.46 9.06809 16.519 8.45573 16.6293 7.85875C16.7089 7.42574 16.886 7.00811 17.0118 6.58279C17.0503 6.44956 17.0374 6.29839 17.0836 6.17028C17.1581 5.96275 17.2659 5.7629 17.3609 5.56305C17.3788 5.52718 17.4173 5.49644 17.4199 5.46057C17.4302 5.31196 17.3865 5.1403 17.443 5.01987C17.7304 4.42545 18.0487 3.84384 18.3439 3.25198C18.4902 2.9599 18.5774 2.63963 18.7417 2.36035C18.8803 2.1272 19.1062 1.94785 19.2704 1.72238C19.4783 1.44054 19.6477 1.1382 20.0815 1.15614C20.179 1.16126 20.3022 1.01778 20.3844 0.92042C20.6205 0.628334 20.7847 0.256821 21.2493 0.249135C21.2929 0.246573 21.3263 0.123589 21.3854 0.100529C21.4983 0.0544106 21.6779 -0.0275785 21.7318 0.0211025C21.9911 0.241448 22.217 0.269632 22.4942 0.0518484C22.5789 -0.0147677 22.7483 -0.00451905 22.874 0.0134161C23.4926 0.0954051 24.1163 0.185081 24.7323 0.295254C24.8606 0.318313 25.03 0.413113 25.0762 0.518161C25.2199 0.846118 25.4612 0.999847 25.7717 1.16895C26.3159 1.46616 26.8036 1.85817 27.1116 2.43466C27.2117 2.61657 27.4735 2.69856 27.6249 2.85997C28.0048 3.27504 28.4744 3.65681 28.7054 4.14874C29.1033 4.99169 29.7501 5.73215 29.7937 6.73908C29.8117 7.13109 30.0426 7.51029 30.1325 7.90487C30.2865 8.59152 30.4097 9.28331 30.5303 9.97509C30.5534 10.1006 30.5175 10.2364 30.5072 10.3671C30.4841 10.7309 30.2891 11.1024 30.5791 11.4483C30.6125 11.4868 30.6176 11.5636 30.6099 11.6174C30.5226 12.1555 30.42 12.6884 30.3455 13.2265C30.3224 13.3776 30.402 13.5416 30.384 13.6953C30.2891 14.5921 30.1889 15.4889 30.0709 16.383C30.017 16.7827 29.9272 17.1824 29.8322 17.577C29.7757 17.8153 29.6756 18.0433 29.5986 18.2739C29.5704 18.3533 29.5011 18.4481 29.5216 18.5148C29.7141 19.163 29.3522 19.7267 29.2316 20.3211C29.1392 20.7823 28.8825 21.2076 28.7003 21.6457C28.6515 21.7687 28.5694 21.8866 28.5643 22.0121C28.5309 22.6936 28.2229 23.2496 27.8097 23.7646C27.766 23.8159 27.7147 23.9158 27.7404 23.9594C27.92 24.3104 27.648 24.418 27.435 24.564C27.6121 25.0329 27.3425 25.6222 26.7753 25.9706C26.321 26.2474 25.9617 26.8136 25.2764 26.3832C25.279 26.4293 25.279 26.478 25.2815 26.5241C25.4124 26.5625 25.5407 26.6009 25.6716 26.6419C25.6793 26.6676 25.6871 26.6932 25.6948 26.7188C25.5664 26.747 25.4407 26.7803 25.3123 26.811C25.1763 26.8418 25.0377 26.8725 24.935 26.8392C24.6245 26.7521 24.3165 26.665 24.0624 26.5933C23.8724 27.1621 23.7133 27.6463 23.5413 28.1613C23.3976 28.1049 23.2847 28.0332 23.1589 28.0101C23.0177 27.9819 22.8689 27.9948 22.7277 27.9896C22.7226 28.1767 22.6456 28.4073 22.7251 28.5405C23.3026 29.4577 23.934 30.3417 24.5064 31.2615C24.7708 31.6843 24.9787 32.1557 25.1532 32.6271C25.2199 32.8116 25.1429 33.0576 25.1147 33.2754C25.0839 33.5136 25.0326 33.7545 24.9812 34.0158C25.1943 33.8775 25.3739 33.7622 25.6408 33.5905C25.4791 33.8903 25.3739 34.0876 25.2405 34.3335H25.7384C25.7461 34.3745 25.7564 34.4155 25.7641 34.4616C25.6178 34.4898 25.4663 34.5462 25.3226 34.5385C24.9478 34.5206 24.55 34.2772 24.2574 34.6641C23.875 34.4591 23.5105 34.2618 23.1409 34.0671C22.8612 33.921 22.6276 33.8134 22.5224 33.4214C22.3966 32.9551 22.0476 32.5503 21.7858 32.125C21.6318 31.8815 21.47 31.633 21.2878 31.4101C20.9644 31.0155 20.6128 30.6466 20.2945 30.2495C20.1816 30.106 20.1277 29.9164 20.0379 29.7242C19.8274 29.6038 19.5425 29.4706 19.2858 29.2912C18.6262 28.8326 17.9845 28.356 17.33 27.8871C16.6781 27.4157 16.039 26.9315 15.3666 26.4933C15.0611 26.296 14.6864 26.2012 14.3476 26.0552C14.0345 25.9194 13.7162 25.7964 13.4185 25.635C12.5381 25.1584 11.5705 25.038 10.6029 24.8817C9.98943 24.7792 9.37856 24.6383 8.7677 24.5128C8.71123 24.5025 8.65222 24.4641 8.60089 24.4743C7.62557 24.6716 6.60403 24.5128 5.64411 24.8869C4.58151 25.2994 4.26324 26.5394 4.66877 27.5387C4.82277 27.9128 4.96908 28.3048 5.19751 28.6353C5.44134 28.9914 5.79039 29.2733 6.07272 29.6012C6.61171 30.2264 7.27391 30.6696 8.0285 30.9848C8.10294 31.0181 8.14659 31.1283 8.20819 31.1975C8.29545 31.2999 8.38014 31.4101 8.48537 31.4972C8.59831 31.5895 8.72152 31.6945 8.85499 31.7176C9.02952 31.7483 9.2143 31.7048 9.48123 31.6868C10.1768 31.9661 10.9776 32.2864 11.8143 32.6194C11.8297 32.7219 11.8502 32.8577 11.8785 33.0422C12.0119 33.0115 12.1198 32.9858 12.2276 32.9653C12.3123 32.95 12.456 32.9064 12.4765 32.9372C12.8513 33.488 13.4801 33.1806 13.9677 33.3778C14.5658 33.6161 15.2434 33.6546 15.8825 33.7955C16.3239 33.898 16.768 34.1439 17.1966 34.1158C17.733 34.085 18.1873 34.5334 18.7237 34.2977C18.7828 34.272 18.8803 34.2669 18.9368 34.2951C19.6144 34.6231 20.3253 34.559 21.044 34.5154C21.6805 34.477 22.3504 34.3822 22.9433 34.5462C23.4002 34.6743 24.0418 34.5257 24.3242 35.1585C24.4242 35.3815 25.0326 35.3148 25.2097 35.0535C25.3098 35.1995 25.397 35.3277 25.5125 35.4942C24.6065 35.4814 24.6912 35.7273 24.8375 36.3704C25.2199 35.6249 25.9052 35.3456 26.611 35.0996C26.5905 35.0381 26.5674 34.9766 26.5469 34.9151C26.2106 34.9485 25.8744 34.9818 25.5562 35.0176C25.7615 34.5462 26.2722 34.7614 26.6983 34.641C26.3877 34.29 27.2502 33.7391 26.4622 33.4803C26.493 33.3215 26.5238 33.1549 26.5546 33.0012C26.7086 32.8936 26.8575 32.7911 27.05 32.6579C26.6932 32.4145 26.4083 32.2274 26.0515 32.4324C26.0875 32.4529 26.1234 32.476 26.1593 32.4965C26.1259 32.7732 26.09 33.0473 26.049 33.3445C25.7897 33.3907 25.6614 33.342 25.7512 33.055C25.7872 32.9423 25.818 32.8295 25.8257 32.7142C25.8539 32.3376 25.8718 31.9763 26.416 32.2761C26.4776 32.3094 26.6136 32.1916 26.7214 32.1583C26.9114 32.1019 27.1013 32.0378 27.2964 32.0097C27.4452 31.9892 27.6018 32.0148 27.7532 32.0199C27.6993 31.8662 27.6403 31.7124 27.5812 31.5485C27.7686 31.3563 28.2409 31.2743 27.9714 30.7824C27.7429 30.972 27.5325 31.1488 27.2835 31.3512V30.685C27.4298 30.6415 27.648 30.6338 27.7712 30.521C27.8482 30.4493 27.7866 30.2238 27.7866 30.0342C27.9996 29.7012 28.2486 29.3066 28.5078 28.9197C28.6053 28.7762 28.7285 28.6532 28.8543 28.5046C28.6798 28.315 28.536 28.1536 28.341 28.5892C28.2229 28.8531 27.9329 29.0452 27.7199 29.2681C27.6454 29.4449 27.5581 29.6525 27.4734 29.86C27.4041 29.8318 27.3323 29.8036 27.263 29.7729C27.399 29.4782 27.5299 29.181 27.6736 28.8889C27.8148 28.5994 27.9585 28.3048 28.5052 28.3842C28.2896 28.1844 28.1896 28.0921 28.0099 27.9256C28.2563 27.736 28.5001 27.5515 28.7388 27.3696C28.7953 27.326 28.8851 27.285 28.9005 27.2261C29.0956 26.4575 29.6782 25.8912 29.9759 25.1713C30.0555 24.9791 30.2916 24.8484 30.3866 24.7562C30.7177 24.3693 30.9898 24.0465 31.3465 23.6288C31.3286 23.4162 31.5672 23.0677 31.9137 22.9268C32.001 22.8909 32.0395 22.7295 32.0985 22.6245C32.214 22.4272 32.3039 22.2068 32.4527 22.0377C32.6247 21.843 32.8609 21.7072 33.0457 21.5227C33.4384 21.1359 33.8028 20.7208 34.2109 20.3467C34.311 20.2519 34.5266 20.2878 34.7165 20.2596C34.8569 19.7591 35.1854 19.479 35.7021 19.4192C35.3325 19.0503 35.6457 18.8888 35.8946 18.7018C36.254 18.4379 36.6004 18.1509 36.97 17.8998C37.3319 17.659 37.7144 17.4463 38.1327 17.1978C38.0788 17.3669 38.0378 17.4925 37.9659 17.7128C38.1173 17.6103 38.2251 17.5745 38.238 17.5206C38.3252 17.0236 38.7744 16.9416 39.1183 16.7418C39.1928 16.7008 39.2903 16.6751 39.3416 16.6111C39.8087 16.0397 40.5351 15.9782 41.1537 15.7143C41.3539 15.6298 41.6234 15.7015 41.8955 15.7015C41.9494 15.6477 42.0392 15.4863 42.1624 15.4453C42.976 15.1814 43.6793 14.628 44.5956 14.6228C44.8779 14.6203 45.1474 14.3384 45.44 14.2488C46.0149 14.0694 46.595 13.9054 47.1853 13.7927C47.3855 13.7543 47.6447 13.8491 47.8372 13.9541C48.348 14.2308 48.8742 14.4563 49.1206 15.084C49.3618 15.7015 49.7853 16.2473 50.0574 16.857C50.3294 17.4617 50.5887 18.092 50.7222 18.7351C50.8916 19.5653 51.0224 20.4236 50.9968 21.264C50.966 22.1915 50.717 23.1062 50.6015 24.0311C50.468 25.0611 50.119 26.0219 49.5004 26.829C49.1154 27.3286 48.828 27.8692 48.4738 28.3765C48.1504 28.8428 47.7551 29.2553 47.3829 29.6832C46.9748 30.1572 46.595 30.662 46.1304 31.0796C45.7018 31.4614 45.1679 31.7304 44.6957 32.0737C44.4005 32.2838 44.149 32.5528 43.8589 32.7706C43.6587 32.9243 43.4354 33.0499 43.2096 33.1652C43.0094 33.2702 42.745 33.2959 42.5987 33.4445C42.2984 33.7468 41.9622 33.9338 41.5823 34.1183C41.2127 34.2977 40.9099 34.5974 40.4915 34.7409C40.0475 34.8972 39.6573 35.2124 39.2415 35.4481C38.2123 36.0322 37.1882 36.619 36.1513 37.1903C35.9177 37.321 35.6508 37.3902 35.4018 37.4927C35.2299 37.5644 35.0271 37.6131 34.8936 37.731C34.1082 38.4381 33.1021 38.5278 32.137 38.7276C31.752 38.8071 31.4466 38.6841 31.3979 38.3612C31 38.3023 30.6664 38.2562 30.3353 38.1973C30.1222 38.1614 29.9143 38.1025 29.7013 38.0538C29.3933 37.9872 29.3112 37.713 29.4472 37.4286C29.5627 37.1827 29.5986 36.8983 29.6885 36.5524H29.0417C29.0981 36.4038 29.111 36.1988 29.2188 36.1091C29.709 35.7017 30.2249 35.3277 30.728 34.9382C30.7947 34.887 30.8691 34.7922 30.941 34.7922C31.5364 34.787 31.8727 34.2977 32.3424 34.0594C32.6478 33.9057 33.002 33.8365 33.2895 33.6622C33.9696 33.26 34.6164 32.8065 35.2889 32.394C35.4968 32.2659 35.7534 32.2146 35.9793 32.1198C36.8212 31.7714 37.4808 31.1436 38.2534 30.685C38.5999 30.48 38.9977 30.3673 39.3545 30.1803C39.6163 30.0419 39.8524 29.8523 40.0962 29.6832C40.1527 29.6422 40.1963 29.5346 40.2502 29.532C40.9483 29.4987 41.2281 28.848 41.726 28.52C43.4149 27.4131 44.5827 25.8118 45.5555 24.0772C45.9174 23.4315 46.2793 22.7475 46.4282 22.0377C46.654 20.9642 46.7875 19.8522 46.5231 18.7223C46.4102 18.73 46.3101 18.7223 46.2151 18.7479C45.4117 18.9708 44.593 19.163 43.8076 19.4397C43.1865 19.6575 42.627 20.0931 41.9981 20.2365C41.0741 20.4466 40.4941 21.1615 39.7138 21.5689C39.4828 21.6893 39.3108 21.9301 39.1132 22.1146C39.049 22.1735 38.9926 22.2555 38.9181 22.2888C37.8453 22.7679 37.2934 23.8338 36.4028 24.5205C35.9434 24.874 35.6405 25.4223 35.2145 25.8272C34.483 26.5266 33.9337 27.3722 33.292 28.1382C32.8377 28.6789 32.4938 29.3066 32.0498 29.8549C31.7777 30.188 31.4081 30.4416 31.1027 30.7465C31.0154 30.8311 30.9461 30.9771 30.9435 31.0975C30.9384 31.4588 30.787 31.6766 30.4431 31.8072C30.2942 31.8636 30.1864 32.0302 30.0041 32.2018C30.1094 32.2428 30.1838 32.2736 30.2608 32.3069C30.2146 32.2966 30.1659 32.2864 30.1197 32.2761C29.8758 32.5759 29.496 32.8449 29.4215 33.1806C29.3291 33.5982 29.1007 33.7468 28.7901 33.8954C28.6541 33.6802 28.5258 33.4624 28.3769 33.2549C28.3692 33.2421 28.187 33.301 28.1562 33.365C28.1305 33.4214 28.1716 33.5674 28.2255 33.6008C28.4077 33.7135 28.6079 33.7929 28.803 33.8852" fill="#E2EE48"/>
</svg>
