<svg width="45" height="53" viewBox="0 0 45 53" fill="none" xmlns="http://www.w3.org/2000/svg">
<path d="M25.472 6.75013C25.6015 6.72741 26.1215 6.67753 26.3435 6.64696C26.1018 6.74484 25.0075 6.83187 25.472 6.75013ZM40.0844 8.99331C40.1963 8.8401 40.307 8.68789 40.4231 8.52874C40.0569 8.9348 39.5888 9.48571 39.2425 9.85261C39.1854 9.91311 39.2926 9.71974 39.1604 9.8657C39.0263 10.0136 39.1044 10.0246 38.9233 10.2389C38.7177 10.483 37.7184 11.5289 37.385 11.898C36.1303 13.2928 34.8943 14.6957 33.6044 16.053C34.8764 14.6018 33.5215 15.9993 33.1729 16.4068C33.096 16.4967 33.1973 16.5691 31.8608 17.9647C31.0156 18.8459 31.6527 17.905 30.3255 19.4595C31.4889 18.3885 30.4235 19.5215 29.5881 20.423C29.4414 20.5816 28.2593 21.8209 27.7437 22.3799C27.7005 22.4267 27.6544 22.4821 27.606 22.5429C27.4617 22.7243 27.307 22.947 27.1549 23.1196C27.0105 23.284 26.8779 23.3808 26.6935 23.6069C26.4861 23.8571 26.2861 24.1525 26.2818 24.1761C26.2829 24.1719 26.3021 24.1478 26.3414 24.0132C26.3681 23.8942 26.4647 23.605 26.3377 23.0721C26.2202 22.5169 25.7075 21.9839 25.4371 21.8478C25.1457 21.6797 25.0337 21.6733 24.9732 21.6558C24.8136 21.6391 25.2092 21.6651 25.5182 21.6344C25.8503 21.6106 26.2288 21.5694 26.6166 21.5235C25.8971 21.7466 26.8269 21.5963 27.2521 21.5222C27.3445 21.5065 27.4118 21.4954 27.4257 21.4949C27.5622 21.4919 27.4387 21.5205 27.2565 21.555C26.9051 21.6218 26.3474 21.7034 26.7803 21.6669C26.9443 21.6448 27.0957 21.6238 27.2627 21.6003C28.056 21.4886 28.8619 21.3726 29.668 21.2583C28.8662 21.3475 30.7054 20.9769 31.0553 20.9852C30.8811 20.8547 35.5272 20.5346 36.2435 20.4273C36.393 20.4043 35.4047 20.4236 37.6739 20.236C37.9211 20.2174 37.8315 20.2695 37.9596 20.2541C38.0374 20.2449 38.4967 20.0648 39.01 20.1061C39.2075 20.1307 37.9812 20.2635 40.6515 20.107C40.2127 20.0665 40.7274 20.006 41.6483 20.0198C41.9484 20.0356 42.2459 20.0455 42.7694 20.2713C43.3405 20.5013 44.0058 21.1923 44.1852 21.899C44.2892 22.2679 44.2943 22.4917 44.2938 22.7119C44.2905 22.9261 44.2609 23.1262 44.2293 23.2757C44.1759 23.5288 44.1001 23.7436 44.0241 23.9264C43.7529 24.5509 43.4903 24.9037 43.2621 25.2281C42.7963 25.8658 42.3829 26.3214 42.2091 26.5123C42.3307 26.3989 42.472 26.2596 42.6004 26.1321C41.9906 26.7901 41.9121 26.9344 41.7901 27.0717C41.2517 27.664 40.5137 28.3721 40.0166 28.8874C39.4427 29.4805 39.511 29.5374 38.7991 30.1958C38.9755 30.0488 39.1542 29.8985 39.3267 29.7533C38.8511 30.2227 38.3819 30.6766 37.9068 31.1301C38.917 29.9849 37.6692 31.3549 37.5819 31.4394C37.4434 31.5783 37.6141 31.3483 37.3807 31.5805C37.358 31.6035 37.4189 31.6082 37.0675 31.9504C36.3167 32.6784 36.3969 32.5223 36.0814 32.8205C36.0512 32.8489 36.1866 32.7788 35.634 33.308C33.9035 34.9554 35.6246 33.2766 35.6863 33.2091C35.7665 33.1223 35.0605 33.5582 36.5814 32.2076C36.066 32.6688 35.9719 32.653 35.9129 32.7061C35.862 32.7529 35.0034 33.5678 34.9576 33.6127C34.5459 34.0283 34.9584 33.7164 34.881 33.8005C34.8125 33.8753 33.7267 34.7827 33.5794 35.1236C32.9818 35.4748 33.7894 34.7612 34.608 33.9761C34.7067 33.8464 33.7752 34.664 33.7209 34.7127C32.5294 35.7987 33.2673 35.2838 33.0561 35.5769C32.9449 35.7306 32.3953 36.1198 32.9227 35.7841C31.8429 36.774 32.4619 36.1332 32.3854 36.1904C32.2717 36.2753 31.9088 36.6416 31.8572 36.6823C31.7824 36.7414 32.0047 36.4935 31.7165 36.7346C31.6667 36.7768 31.265 37.2202 31.8608 36.7266C31.0874 37.4072 31.187 37.3882 30.8529 37.5424C30.4509 38.1709 30.3889 37.7941 30.1718 37.9714C29.5967 38.4402 29.8618 38.4179 29.838 38.4494C29.663 38.6721 28.0863 39.9823 27.7174 40.3319C27.7932 40.1147 28.9453 39.2585 29.1691 39.0312C29.9182 38.2748 28.0019 39.9788 28.4887 39.3601C28.2667 39.607 28.0536 39.8456 27.835 40.0886C27.3263 40.4083 27.9343 39.8276 26.7498 40.8999C26.6044 41.1321 27.5949 40.15 27.4257 40.3801C27.3223 40.5194 26.6318 41.1283 26.6297 41.1557C26.6321 41.1848 27.2435 40.6182 27.1676 40.7316C27.0081 40.9757 24.6372 42.9206 26.3746 41.3668C25.8785 41.7969 25.532 41.8907 25.1343 42.2957C24.8783 42.5558 26.5731 41.387 24.2139 43.3544C24.1178 43.3408 25.1301 42.5428 25.1544 42.5141C25.1851 42.4771 24.8992 42.5049 24.8629 42.5253C24.7563 42.5881 23.0978 44.0819 22.231 44.7735C22.0692 44.9029 21.9396 45.0016 21.8538 45.0575C22.1066 44.9593 20.1181 46.5825 19.9384 46.7964C19.8882 46.8523 20.1347 46.7091 20.0795 46.7671C19.7348 47.1227 18.685 47.9492 18.2405 48.376C17.7419 48.8516 17.8413 48.8289 17.8132 48.8553C17.596 49.0641 17.7452 48.87 17.6126 49.0004C17.4059 49.1933 16.0621 50.5602 15.9882 50.653C15.969 50.6762 16.2376 50.4803 15.9425 50.8027C15.9156 50.8319 15.9023 50.8219 15.7772 50.9324C15.715 50.9869 15.6281 51.069 15.4852 51.2097C15.3216 51.3599 15.2151 51.5145 14.6783 51.9364C14.6569 51.9523 14.6353 51.9679 14.6136 51.9833C14.4364 52.1091 14.2718 52.2073 14.122 52.2838C13.9803 52.3587 13.7471 52.4514 13.6039 52.492C13.2906 52.5802 13.1881 52.5834 13.3162 52.5733C13.438 52.5609 13.7411 52.4988 14.0241 52.3766C14.254 52.2809 14.4545 52.1699 14.6535 52.0408C15.0278 51.7892 15.1995 51.6261 15.3175 51.5379C15.4288 51.4507 15.4641 51.4383 15.3353 51.5847C15.1382 51.7435 14.9474 51.9013 14.6805 52.0798C14.4201 52.2483 14.2469 52.3469 13.9608 52.4699C13.649 52.5948 13.4124 52.666 13.0248 52.6977C12.2435 52.7599 11.2863 52.4263 10.718 51.5654C10.6197 51.4247 10.4146 51.0405 10.3339 50.6308C10.2673 50.3254 10.2573 49.9373 10.2759 49.7054C10.3149 49.1427 10.419 48.7198 10.5161 48.2571C10.4516 48.5833 10.3912 48.9226 10.3577 49.3365C10.3417 49.5751 10.3263 49.7676 10.3592 50.1541C10.3835 50.3576 10.391 50.4888 10.5045 50.8514C10.6219 51.167 10.7671 51.5886 11.3534 52.0719C10.7709 51.5917 10.602 51.1262 10.4871 50.7637C10.3863 50.3976 10.3768 50.2101 10.364 49.9668C10.3515 49.5858 10.3872 49.2751 10.4239 49.0115C10.5005 48.4886 10.6014 48.0905 10.6741 47.8337C10.7427 47.6042 10.7556 47.8187 10.8942 47.3124C10.9265 47.2179 10.8639 46.7187 10.5922 48.0892C10.5057 48.1809 10.7023 47.5456 10.7723 47.2499C10.7829 47.204 10.7276 47.0183 10.9007 46.6716C10.9476 46.6047 10.9201 47.5703 11.4892 45.2031C11.5077 45.1289 11.3854 45.3664 11.4025 45.2937C11.4121 45.2473 11.6324 44.6698 11.6508 44.6053C11.669 44.5376 11.5301 44.8038 11.5505 44.7231C11.6534 44.3133 11.9931 43.8573 11.6887 44.6587C11.8029 44.4002 11.924 44.1282 12.0425 43.8678C11.8213 44.1116 12.1671 43.4332 12.3065 43.0615C13.2033 40.6919 12.5141 42.2435 12.6341 41.8224C12.8322 41.1463 12.8258 41.7224 13.1559 40.7361C13.1885 40.6446 12.6294 41.7687 13.6022 39.5294C13.4678 39.8632 13.3344 40.1974 13.2015 40.5331C13.3889 40.3838 13.6876 39.3276 13.7195 39.2485C14.0724 38.3613 13.8613 38.9711 14.3573 37.642C14.4018 37.5232 14.5367 37.2805 14.6295 37.0264C15.0148 35.9723 14.0152 38.3734 13.9459 38.4226C13.9081 38.4427 15.0125 35.87 15.0635 35.7887C15.27 35.4342 14.5816 36.9609 14.7643 36.6924C14.8245 36.5929 16.3785 32.9216 16.7263 32.2118C16.8494 31.9559 16.9619 31.7541 17.0548 31.594C17.1221 31.5155 17.0993 31.8077 16.9855 31.7949C17.1218 32.0903 17.2174 32.5889 17.3293 32.7081C17.6694 33.0864 17.6414 32.9562 17.5891 32.9552C17.5299 32.928 17.4345 32.8956 17.336 32.8687C17.1314 32.8143 16.907 32.7649 16.3886 32.6969C16.2861 32.6837 16.1972 32.6626 16.1132 32.6417C16.0088 32.6149 15.9195 32.5892 15.8705 32.5887C15.8191 32.5884 15.91 32.656 15.6565 32.6456C15.3254 32.6224 13.1266 32.3892 12.9559 32.3485C12.7929 32.3043 13.8969 32.4048 13.7019 32.3382C12.9061 32.2718 12.1308 32.2313 11.3107 32.1656C10.9701 32.138 11.1478 32.1145 11.0002 32.1028C10.94 32.099 9.74796 32.0369 9.7967 32.053C9.92826 32.1041 13.5472 32.3428 12.5894 32.3378C12.4062 32.337 11.7642 32.2065 11.8597 32.3159C10.1731 32.1726 8.53877 32.0818 6.63172 31.744C6.24407 31.6676 5.84863 31.584 5.34837 31.406C4.88574 31.1974 4.10774 31.0415 3.36554 29.8234C3.02901 29.2199 2.97445 28.5166 3.02516 28.076C3.07336 27.6199 3.17679 27.3161 3.26736 27.0621C3.45454 26.5641 3.62815 26.2436 3.78766 25.9307C3.91574 25.684 4.04404 25.4402 4.17245 25.1994C4.05738 25.4422 3.93769 25.6907 3.81454 25.9444C3.66788 26.2512 3.50415 26.5662 3.32339 27.0502C3.19599 27.4952 2.7567 28.3788 3.37912 29.7325C4.09293 30.9729 4.89097 31.1401 5.35331 31.3507C5.85674 31.5318 6.25288 31.6161 6.64122 31.6928C7.1138 31.7829 7.55218 31.8432 7.97661 31.8928C8.26389 31.9291 9.19484 32.0301 9.08595 31.9668C8.3566 31.8902 7.55403 31.8137 6.64897 31.651C6.00877 31.4964 5.41287 31.5094 4.27686 30.7472C3.69128 30.3962 3.01456 29.1803 3.09323 28.3925C3.11449 27.6145 3.29788 27.241 3.41987 26.9168C3.44914 26.8465 3.38899 27.1223 3.50063 26.8638C3.5933 26.6508 3.75157 26.2926 3.89514 25.9855C4.06991 25.6073 4.24509 25.2338 4.30704 25.1394C4.32551 25.1126 4.06882 25.7379 4.19802 25.5741C4.52821 25.1561 4.3991 24.9279 4.61471 24.5312C4.77763 24.2135 6.02423 22.215 6.27488 21.6788C6.52759 21.1029 5.36291 23.1571 5.40256 22.9824C6.14253 21.5561 7.04065 20.2048 7.84622 18.9364C7.86049 18.9139 7.69615 19.0844 7.87374 18.7959C8.17961 18.3007 8.32169 18.2048 8.48446 17.9757C8.66176 17.7236 9.25293 16.8223 9.3537 16.7175C9.36638 16.7042 9.29784 16.9221 9.2816 16.9496C9.04327 17.3523 8.87915 17.448 8.8554 17.4815C8.76434 17.6127 8.70362 17.7629 8.6201 17.8861C8.48542 18.0849 8.38834 18.1781 8.20953 18.4481C8.089 18.6302 8.25196 18.4844 8.135 18.6601C8.09134 18.7237 7.52642 19.3634 7.59749 19.5029C7.5834 19.5085 11.4811 13.8687 11.7995 13.3499C11.4721 13.8078 11.1354 14.2687 10.795 14.7353C11.4982 13.7894 12.1628 12.5997 12.3373 12.6119C12.7478 11.9842 13.168 11.267 13.2828 10.9123C13.2993 10.8813 13.248 10.9366 13.2892 11.2176C13.3154 11.4994 13.616 11.8997 13.7628 11.9729C14.0587 12.13 13.7756 11.9809 13.4939 11.9817C12.8812 11.9394 12.0399 12.0096 11.2168 12.1061C9.54193 12.3031 7.80174 12.6205 5.93467 12.8205C5.09454 12.8827 5.57776 12.7717 4.12966 12.8575C4.50989 12.884 4.88489 12.8944 5.25034 12.8972C4.86926 12.9045 3.91103 13.0148 2.6547 12.8255C2.07427 12.7466 1.38635 12.381 0.999982 11.9316C0.603026 11.4874 0.438267 11.0716 0.331001 10.756C0.132317 10.1186 0.130643 9.76087 0.106562 9.58977C0.10614 9.51442 -0.0349779 9.34713 0.00966549 8.44093C0.0664663 7.66013 0.164499 7.57059 0.23373 7.18862C0.295004 6.87176 0.341544 6.5303 0.362486 6.44096C0.378136 6.37541 0.425135 6.35333 0.46349 6.1955C0.470365 6.16714 0.476082 6.14236 0.480835 6.12049C0.579251 5.68664 0.387894 6.07459 0.656993 5.50845C0.619256 5.67163 0.5911 5.82202 0.567371 5.96111C0.665008 5.31123 1.40842 3.8464 0.85013 5.29808C0.790504 5.51495 0.805056 5.32124 0.760922 5.47695C0.687466 5.74864 0.645642 5.96206 0.609686 6.1458C0.118625 9.0828 0.379929 7.6333 0.654264 6.15456C0.745235 5.69858 0.857266 5.06959 1.21055 4.44104C1.32053 4.28109 1.59662 3.87687 2.03055 3.54555C2.46109 3.20993 2.94955 2.99981 3.35351 2.86515C4.16584 2.60263 4.7705 2.52728 4.8212 2.51845C4.93483 2.51704 4.54067 2.62862 5.05452 2.58716C5.06332 2.58654 5.0724 2.58587 5.08179 2.58516C5.22234 2.53324 8.33283 2.22238 7.21678 2.40132C6.99023 2.43016 5.49409 2.5656 5.10906 2.63841C6.01068 2.61596 7.95551 2.28655 8.17563 2.28143C9.06618 2.24198 6.47676 2.50792 8.4788 2.38817C10.0163 2.31227 8.56602 2.30784 9.15767 2.23883C9.48855 2.19676 11.22 2.22222 11.1696 2.10446C11.7599 2.07187 11.4165 2.14789 11.4895 2.15009C11.5633 2.15081 12.7227 2.08178 13.1019 2.10034C13.1475 2.10253 13.0052 2.16903 13.0526 2.17317C13.1418 2.17923 14.2653 2.14543 14.3072 2.14011C14.3355 2.13589 14.0691 2.08483 14.178 2.06958C14.3053 2.05128 15.382 2.04966 15.4407 2.0337C15.5238 2.00803 14.1973 2.042 14.4164 1.97722C15.0293 1.9828 16.0269 1.9311 16.4296 1.87843C16.3318 1.89332 15.7372 1.90068 15.5317 1.89809C15.6271 1.80548 16.9021 1.79634 16.4667 1.87174C16.7442 1.83109 16.5542 1.81199 16.711 1.77446C16.751 1.7649 17.1435 1.76063 17.2206 1.74457C17.2299 1.74133 16.8234 1.70941 16.9047 1.6905C17.0532 1.65567 18.2433 1.65869 18.3424 1.66776C18.6169 1.6919 17.6458 1.72414 17.5636 1.76314C17.553 1.76883 18.3781 1.8415 18.3923 1.84834C18.4392 1.91914 17.5211 1.87052 17.6256 1.9344C17.8554 1.94704 18.0792 1.95993 18.3081 1.97301C17.431 2.03838 15.8079 2.01745 15.3896 2.09716C16.6905 2.05972 18.0538 2.05957 18.049 2.22569C18.0493 2.29556 17.4874 2.33854 17.5097 2.35634C17.5932 2.41942 18.3693 2.34807 18.3996 2.35158C18.4235 2.35542 18.4344 2.35919 18.4344 2.36286C18.4344 2.36286 18.4344 2.36286 18.4344 2.36287C18.4325 2.39974 17.3239 2.43004 17.2704 2.44779C17.178 2.47842 17.6692 2.60063 17.6695 2.62824C17.6519 2.63361 16.8634 2.66707 17.13 2.71373C17.4 2.76056 18.0903 2.75937 18.1138 2.76449C18.2459 2.79278 17.0401 2.8238 17.0026 2.84171C16.9841 2.85034 17.632 2.90041 17.6512 2.9158C17.6668 2.93103 17.1761 2.96666 16.9811 3.01641C16.8365 3.05326 17.2586 3.07847 17.1846 3.08455C17.1296 3.08806 15.9941 3.09573 15.935 3.10318C15.8514 3.11333 16.1197 3.15387 16.0809 3.16501C16.0249 3.18092 15.6577 3.16903 15.7058 3.18451C15.7409 3.19513 17.169 3.33262 17.1602 3.37309C17.1436 3.4403 15.6334 3.29532 17.0396 3.5526C17.0492 3.55425 17.3927 3.53352 17.4011 3.53516C17.6124 3.58335 16.5175 3.66357 17.8573 3.64477C15.3666 3.7425 17.5458 3.74736 17.179 3.86312C17.0354 3.90722 16.0737 3.93243 16.0677 3.93942C16.1643 3.99401 16.4673 3.94848 16.5735 3.97497C16.6304 3.98949 15.7685 4.05561 15.9629 4.09207C16.0661 4.11035 16.9793 4.09661 17.0171 4.10055C17.3808 4.13465 16.9352 4.17605 17.0153 4.20127C17.069 4.21804 17.6206 4.21678 17.6353 4.21993C17.6589 4.22611 16.9075 4.29926 16.7538 4.32499C16.6357 4.34454 17.0794 4.37118 16.9971 4.37992C16.4985 4.43151 15.4363 4.31639 16.4601 4.48275C16.5228 4.49294 16.9104 4.48597 16.9211 4.48811C17.1605 4.53624 16.4477 4.54508 16.3213 4.587C16.103 4.65872 17.1262 4.6118 16.2758 4.66765C16.9163 4.70836 17.2687 4.70435 18.0173 4.68926C15.9504 4.73342 15.2206 4.92304 17.5157 4.90344C16.785 4.90406 16.8689 5.00647 16.65 5.00964C16.5133 5.0111 15.456 4.91938 15.9425 5.14308C16.0047 5.17081 16.6451 5.1294 16.4448 5.18939C14.9034 5.1884 16.4152 5.22636 16.4141 5.2345C16.3945 5.36318 12.6328 5.30659 11.9922 5.3508C11.2465 5.38998 10.5888 5.52244 10.4288 5.52932C9.89776 5.55193 10.3356 5.4794 10.2162 5.4647C10.0929 5.4473 8.59531 5.62929 8.5235 5.63187C8.23252 5.62791 8.5219 5.54524 8.49185 5.54399C8.12749 5.51944 6.14359 5.73725 5.63914 5.81645C5.65589 5.84997 6.72739 5.72149 6.06635 5.86971C5.84728 5.92001 5.68856 5.94435 5.57565 5.95141C5.28783 5.97101 5.24969 5.88451 5.23471 5.88084C4.70818 5.96593 4.17761 6.14795 4.13862 6.20124C4.12095 6.2251 4.18167 6.13329 4.13751 6.21833C4.10167 6.29816 4.04099 6.53075 3.9879 6.80939C3.83357 7.58729 3.7082 8.32016 3.69032 8.94881C3.67895 9.25261 3.71283 9.54145 3.74146 9.61858C3.75113 9.65663 3.75495 9.61306 3.65236 9.49859C3.55521 9.38162 3.32424 9.2715 3.21991 9.2636C3.82543 9.35741 4.77871 9.29199 5.68098 9.19016C5.59529 9.13426 3.34711 9.32896 3.40796 9.24889C3.28973 9.20054 3.97081 9.26097 4.99532 9.15977C5.99312 9.07133 7.16153 8.90109 7.42015 8.88224C7.0289 8.91823 6.64071 8.95185 6.26091 8.97958C6.88874 8.79044 8.37452 8.70801 9.36019 8.51462C9.67647 8.45273 9.05844 8.49876 9.07055 8.49434C9.42051 8.39851 10.009 8.34991 9.58165 8.46892C10.4582 8.29067 10.3373 8.36866 11.0355 8.29064C11.0734 8.28703 10.7614 8.27497 11.3217 8.19584C11.565 8.14886 13.046 8.05605 13.2876 8.04159C13.3706 8.0207 12.5588 7.85531 12.4843 8.01556C10.8782 8.05296 11.9748 8.11779 11.3707 8.16658C11.2845 8.17911 11.4613 8.0559 10.0134 8.28517C10.2575 8.09061 11.9841 8.00866 12.3144 7.98786C12.935 7.8929 10.3407 8.03817 9.95066 8.23891C10.1411 8.09413 9.77527 8.24541 9.2451 8.31794C8.66517 8.39775 8.91344 8.32589 8.60258 8.37192C7.75873 8.49729 8.11974 8.52819 7.42249 8.55526C8.12198 8.68746 6.25439 8.76025 5.74712 8.74983C6.57886 8.64136 7.44432 8.49838 8.32682 8.35427C8.27444 8.34978 8.22211 8.34529 8.16986 8.34078C8.40222 8.30769 8.63748 8.2741 8.87257 8.241C8.83664 8.25816 8.80073 8.27532 8.76484 8.29249C9.96861 8.03657 10.3044 8.08508 10.403 8.07233C11.8109 7.99365 13.0383 7.47565 15.528 8.27901C15.7296 8.37679 15.7717 8.35029 16.183 8.61886C16.3695 8.75737 16.746 9.01024 17.0916 9.66019C17.4547 10.3096 17.4891 11.316 17.2689 11.9792C17.2427 12.0691 17.2183 12.1396 17.1972 12.1961C17.0377 12.5725 17.1518 12.1593 16.9107 12.7626C16.6974 13.6001 16.5852 13.4826 16.4802 13.6823C16.17 14.2284 16.0116 14.5397 15.9823 14.59C15.604 15.2035 15.0288 16.037 14.6149 16.6501C14.6075 16.6619 14.8661 16.3723 14.5818 16.7609C14.481 16.9008 13.4483 18.0194 12.7776 19.138C12.981 18.8616 13.1813 18.5921 13.3848 18.3193C13.1349 18.6363 11.643 20.9806 12.067 20.4452C12.3217 20.1174 12.7751 19.1956 12.9462 19.1772C12.3593 19.9134 9.72068 24.2353 9.53306 24.5773C9.5021 24.6219 9.63243 24.3128 9.59038 24.3745C9.55662 24.4201 8.9911 25.4303 8.90396 25.558C8.85076 25.6329 9.07832 25.1739 9.04466 25.2032C9.01521 25.2263 8.29927 26.4873 8.31123 26.5851C8.45918 26.2604 8.95649 25.4009 8.74424 25.8774C8.71688 25.9381 8.51957 26.2272 8.48657 26.3033C8.17981 26.9999 9.25257 25.0065 9.43745 24.7052C8.98208 25.5887 8.29961 26.7761 7.70708 27.931C7.58356 28.1702 7.4777 28.3897 7.4297 28.5175C7.36866 28.6377 7.44399 28.6831 7.42598 28.2457C7.37076 27.944 7.30855 27.8803 7.34167 27.9892C7.36968 28.0924 7.39746 28.3373 7.37777 28.4488C7.3616 28.568 7.34404 28.5783 7.33685 28.5795C7.32965 28.57 7.31647 28.611 7.32275 28.5121C7.33742 28.3972 7.29886 28.0525 7.1827 27.838C7.07162 27.617 6.97214 27.5243 6.9236 27.4712C6.82581 27.3751 6.83951 27.3808 6.87649 27.3933C6.91689 27.4108 7.0154 27.4783 7.11155 27.5926C7.20647 27.7022 7.27295 27.8325 7.26263 27.8058C7.19077 27.6019 6.95729 27.3502 6.8453 27.2987C6.73012 27.2369 6.74472 27.2831 6.81566 27.3221C6.96336 27.4092 7.25095 27.4833 7.26418 27.3928C7.32838 27.4105 7.38274 27.4251 7.43079 27.4379C7.6964 27.5054 7.65906 27.5193 8.29358 27.583C8.19655 27.558 8.09929 27.5323 8.00569 27.5064C8.81967 27.524 10.6944 27.9395 10.5524 27.9478C10.1642 27.9731 9.1985 27.7996 9.11847 27.7915C9.01408 27.7772 8.58558 27.9507 7.41873 27.59C7.4128 27.5905 7.40733 27.5911 7.40228 27.5916C7.32939 27.599 7.3364 27.6165 7.3933 27.64C7.63243 27.7606 9.19439 27.9301 8.22447 27.8822C8.986 27.9915 12.4619 28.3273 12.9801 28.3084C13.0414 28.3059 12.7673 28.1615 13.6351 28.2885C14.0474 28.3492 13.0479 28.2765 13.2358 28.3187C13.4702 28.3767 14.8397 28.4586 16.6197 28.6732C17.3609 28.7804 18.1225 28.8562 19.1418 29.2554C19.6171 29.4733 20.4288 29.8057 20.8941 30.916C21.2887 32.0477 20.9247 32.7962 20.7496 33.2431C20.2959 34.2717 19.9289 35.1166 19.76 35.5037C19.7214 35.5919 19.7005 35.5441 19.6627 35.6311C19.5451 35.9002 19.1698 36.9011 18.947 37.3721C19.4432 36.4064 18.6105 38.3392 18.3954 38.8282C18.0662 39.5706 18.0247 39.4978 17.875 39.815C17.2967 41.0377 16.658 43.0294 16.145 43.9442C16.3005 43.9481 15.4282 45.5984 15.1573 46.3854C14.937 47.0035 14.7482 47.9161 15.0744 47.1115C14.8939 47.6418 14.733 48.1717 14.6034 48.689C14.5403 48.942 14.4871 49.1841 14.4497 49.407C14.4132 49.6073 14.4014 49.8364 14.4075 49.8102C14.4067 49.7875 14.3952 49.7844 14.3855 49.7888C14.3688 49.7719 14.387 49.8498 14.3307 49.6209C14.3208 49.5919 14.3288 49.5628 14.2799 49.4301C14.2482 49.3593 14.2277 49.2778 14.0627 49.0775C13.9175 48.8951 13.5596 48.6294 13.1707 48.5639C13.0086 48.533 12.8669 48.532 12.7546 48.5415C12.6511 48.5509 12.5984 48.5624 12.5407 48.5759C12.4329 48.6024 12.3686 48.6313 12.3406 48.6438C12.2887 48.6676 12.2894 48.67 12.3061 48.6571C12.2784 48.6773 12.3686 48.6033 12.4232 48.5516C12.4825 48.4971 12.5354 48.4478 12.5777 48.4099C12.6578 48.3383 12.696 48.3122 12.7072 48.3156C12.7333 48.3184 12.6783 48.4103 12.8046 48.2989C12.9647 48.1565 13.0879 48.0389 13.1735 47.9536C13.0068 48.1291 12.8371 48.3084 12.6825 48.4661C12.5376 48.6173 12.3595 48.7761 12.3777 48.7603C12.3529 48.779 12.3546 48.7745 12.4038 48.7526C12.4372 48.7379 12.4931 48.7152 12.5804 48.6943C12.6245 48.684 12.6739 48.6746 12.7367 48.6677C12.8173 48.659 12.9136 48.6562 13.0216 48.6669C13.4563 48.6661 14.0531 49.1422 14.1457 49.3896C14.2747 49.625 14.2776 49.7412 14.2853 49.7753C14.2901 49.9044 14.2883 49.674 14.3009 49.6205C14.2682 49.6506 14.2493 49.8774 14.2451 49.7961C14.2367 49.7658 14.2436 49.6914 14.1362 49.4679C14.0894 49.3747 13.9761 49.1863 13.7718 49.023C13.5681 48.8555 13.2954 48.7483 13.074 48.7199C12.5789 48.6777 12.5133 48.7721 12.4255 48.793C12.3754 48.8146 12.3768 48.8167 12.4027 48.7963C12.4118 48.7915 12.735 48.4692 12.9358 48.2504C13.1564 48.015 13.3552 47.8041 13.4867 47.6771C13.5046 47.6599 13.4825 47.7583 13.5002 47.7405C13.5005 47.7401 13.5009 47.7397 13.5012 47.7394C13.6864 47.5452 14.9227 46.2716 14.6232 46.4861C14.5418 46.543 13.9601 47.1232 13.3031 47.8171C13.4725 47.6242 13.2972 47.7216 13.3269 47.6872C13.6864 47.2669 14.6977 46.3258 15.0538 45.9944C15.1356 45.9169 15.1041 45.8953 15.1173 45.8822C15.4384 45.5829 15.3858 45.7826 15.6361 45.3898C16.3102 44.9279 14.5677 46.447 14.7478 46.402C14.856 46.3287 18.5919 42.8448 18.5272 42.8057C18.5479 42.8026 18.6095 42.7675 18.7299 42.6842C18.8936 42.5711 19.3656 42.1699 19.75 41.8392C19.9768 41.6436 20.1663 41.4749 20.2305 41.4109C20.2589 41.3819 20.1804 41.3142 20.2181 41.2811C20.3112 41.1998 21.6589 40.1591 22.0953 39.7049C21.8283 39.9145 21.5596 40.1252 21.2893 40.3368C22.853 39.0002 22.5982 39.1753 22.0511 39.6045C22.025 39.6264 21.9973 39.6451 21.9722 39.666C21.5559 39.9926 21.0189 40.4215 21.0055 40.4222C20.9606 40.4237 23.6046 38.1334 23.1542 38.644C23.0953 38.7128 21.8341 39.7392 22.4893 39.2663C22.6062 39.182 23.375 38.495 23.4246 38.4617C23.7316 38.2638 22.0572 39.7902 22.3102 39.6651C22.6911 39.2504 23.241 38.8244 23.7144 38.3926C23.928 38.1978 23.9475 38.113 23.9738 38.089C24.3653 37.7324 24.1758 37.9676 24.3083 37.8511C24.376 37.7916 25.0962 37.0139 25.0492 37.2638C27.5659 34.9085 25.6937 36.5542 24.1024 37.9438C24.5665 37.4666 25.5699 36.6294 26.0075 36.2275C26.163 36.0847 26.0348 36.1273 26.2946 35.8851C26.833 35.3893 29.4851 33.1106 30.163 32.5084C29.7573 32.9007 29.9186 32.8322 30.2381 32.5376C30.5556 32.2442 30.2353 32.4313 30.2922 32.3686C30.3552 32.3024 31.8624 30.9735 32.1078 30.7296C31.0091 31.7801 31.2964 31.5944 32.2528 30.7193C32.127 30.8583 31.9996 30.9984 31.8711 31.1393C32.4239 30.6006 33.6289 29.5917 33.9337 29.2647C33.9809 29.2142 33.7676 29.35 33.7941 29.3217C34.0618 29.0424 35.0335 28.1774 35.0616 28.1255C35.0894 28.0798 34.6646 28.4339 34.7983 28.2773C34.8271 28.2437 35.2513 27.9251 35.6191 27.5416C35.7529 27.4018 35.6379 27.451 35.6707 27.4151C35.9404 27.1181 35.8289 27.3382 36.349 26.8022C36.7197 26.4173 36.954 26.0754 37.4945 25.5475C35.7076 27.2438 37.194 25.7958 37.8664 25.0316C37.9759 24.9048 37.8187 24.9644 38.4991 24.2707C37.2231 25.8871 38.9743 23.8906 39.2748 23.492C39.2919 23.4714 39.3457 23.4937 39.4941 23.309C39.505 23.2947 39.463 23.2908 39.6008 23.1078C40.2252 22.2458 40.094 22.3205 40.1282 22.3187C40.1433 22.3158 40.114 22.4188 40.1671 22.352C40.1786 22.3571 40.1926 22.2383 40.1373 22.4919C40.1257 22.5741 40.1116 22.6928 40.1393 22.8867C40.1694 23.1148 40.2996 23.458 40.539 23.7118C40.764 23.9658 41.0884 24.1107 41.2188 24.1465C41.3693 24.1929 41.471 24.2012 41.5319 24.2051C41.306 24.2075 41.0788 24.2174 40.9657 24.2195C40.8992 24.2209 40.9349 24.1808 40.6676 24.1893C40.2006 24.2055 39.7759 24.2718 39.4575 24.296C39.4211 24.2993 39.4144 24.2363 38.809 24.3028C38.6393 24.3218 38.4495 24.3593 38.693 24.3565C39.4159 24.3473 40.7309 24.1865 41.531 24.2383C41.4075 24.2206 41.1318 24.2754 40.6104 23.8609C40.1888 23.4777 40.1283 23.1276 40.0945 23.0437C40.0687 22.9447 40.0652 22.9901 40.1227 23.178C40.1744 23.3547 40.3739 23.763 40.7558 24.0194C41.1736 24.2891 41.3928 24.2786 41.5295 24.294C41.027 24.2871 40.0851 24.3336 40.0052 24.3394C39.957 24.3419 40.4573 24.2868 39.9463 24.3068C39.5113 24.3241 38.7152 24.4868 38.0479 24.526C37.995 24.5287 37.4584 24.4912 37.4803 24.4842C37.5044 24.477 38.3181 24.3823 38.1971 24.3682C38.1831 24.3661 37.6642 24.4148 37.594 24.4029C37.5074 24.3879 37.2623 24.1836 37.1494 24.1894C36.8604 24.2047 37.0523 24.2372 36.8674 24.2528C36.4697 24.2843 35.0802 24.376 35.0434 24.4611C35.2734 24.4385 35.5006 24.4167 35.7306 24.3952C34.4601 24.5508 35.0064 24.5222 34.828 24.5578C34.6359 24.5971 34.682 24.5214 34.2523 24.5676C34.1589 24.5758 32.3645 24.8203 32.3997 24.8464C33.3882 24.6707 33.0309 24.8042 33.0768 24.7995C33.2514 24.7827 33.4678 24.7066 33.7013 24.6781C35.3436 24.4817 33.6978 24.7621 34.0876 24.7334C34.2218 24.7233 34.4823 24.6501 34.539 24.6453C34.7236 24.6297 34.7331 24.6827 34.8551 24.6637C35.1394 24.6195 34.797 24.5839 34.8191 24.5773C35.0688 24.4986 36.076 24.4423 35.463 24.5962C35.8402 24.5826 35.8717 24.4781 36.1727 24.485C36.7692 24.4995 35.8866 24.5755 35.6488 24.6168C34.7967 24.7639 34.5386 24.7552 33.3229 24.9227C32.8853 24.9833 32.3708 25.1 32.1689 25.1295C32.0401 25.1477 30.8042 25.1423 30.8055 25.4108C30.3294 25.4494 29.5656 25.3774 29.0781 25.4525C28.6402 25.52 28.7925 25.594 28.7521 25.6032C28.6921 25.6172 28.1611 25.6824 27.9798 25.7204C27.889 25.7397 27.8595 25.7545 27.8272 25.7701C27.7833 25.7904 27.7332 25.8125 27.5441 25.8458C26.694 25.9932 26.6913 25.8908 26.6022 25.8958C25.515 25.9343 25.9968 26.0178 25.7444 26.0509C25.6801 26.0564 25.4412 26.078 25.014 26.0741C24.7882 26.0682 24.5453 26.067 24.1338 25.9911C23.9227 25.947 23.672 25.8937 23.3123 25.7124C22.9707 25.5485 22.3894 25.0955 22.1477 24.4237C21.751 23.015 22.2148 22.604 22.3282 22.2377C22.5027 21.89 22.6539 21.6727 22.7922 21.4731C23.0652 21.0885 23.273 20.8398 23.3789 20.6978C23.211 20.9291 23.0497 21.1604 22.8771 21.4328C23.2583 21.0068 23.5138 20.5714 23.6037 20.6289C23.5406 20.4384 24.2288 19.8219 24.452 19.5932C24.4593 19.5854 24.4662 19.5781 24.4724 19.5712C24.5453 19.4906 24.5179 19.4767 24.6097 19.3766C24.9676 18.9864 25.7983 18.1315 25.9821 17.9125C26.7784 16.965 24.5416 19.2037 24.3632 19.3842C24.7087 19.0182 26.6047 16.9303 25.6597 17.8205C25.5137 17.958 25.327 18.2716 25.2518 18.3566C24.7456 18.9277 25.1042 18.442 25.0583 18.4814C24.9817 18.5479 24.6885 18.96 24.5917 19.0518C24.5594 19.0826 24.7091 18.8303 24.2088 19.3634C24.4114 19.0578 25.8435 17.5976 26.0146 17.3928C26.075 17.3204 25.575 17.6659 26.8582 16.4749C26.8354 16.4816 26.8126 16.4883 26.7898 16.495C27.4541 15.7746 28.1096 15.0624 28.7702 14.3426C28.7187 14.4392 28.386 14.8802 28.8476 14.3651C29.112 14.0697 28.8671 14.2426 28.8904 14.2148C29.1264 13.9429 33.395 9.33604 34.1966 8.41974C34.4712 8.11281 35.2011 7.22222 35.2593 7.1546C35.6037 6.76404 36.8483 5.39621 37.0785 5.11379C37.2218 4.9406 37.0398 5.07241 37.1775 4.91601C37.3053 4.77069 37.2129 4.95542 37.2519 4.91321C37.4117 4.74022 38.0617 3.96852 38.6885 3.17465C39.0039 2.77513 39.3081 2.3741 39.5199 2.07073C39.6313 1.91195 39.7101 1.7873 39.7376 1.74277C39.7538 1.71724 39.7526 1.71767 39.7327 1.77018C39.7207 1.80165 39.7027 1.85135 39.6831 1.92252C39.6732 1.95913 39.6641 1.99554 39.6532 2.0486C39.6387 2.11877 39.625 2.20312 39.617 2.30319C39.6433 2.03563 39.6805 1.94309 39.7061 1.8588C39.7343 1.77608 39.7519 1.74303 39.7562 1.73522C39.7664 1.71852 39.7403 1.77622 39.6855 1.86909C39.5898 2.03601 39.3938 2.33063 39.2203 2.58102C38.8523 3.1112 38.4738 3.62001 38.5059 3.60982C38.5207 3.60066 38.9247 3.16232 38.9914 3.04562C39.1513 2.91591 39.4741 2.27903 39.6599 2.04425C39.6709 2.03048 39.6726 2.06253 39.7113 2.04192C39.7404 2.03541 39.8553 1.90468 39.9117 1.81301C39.9146 1.81536 39.9215 1.77067 39.8613 1.93078C39.8456 1.97972 39.8336 2.00567 39.8067 2.13675C39.783 2.27265 39.7476 2.47595 39.7984 2.8175C39.7973 3.13772 40.2717 4.1027 40.9359 4.38172C41.4496 4.63952 41.8465 4.62563 42.0685 4.60967C41.8022 4.64047 41.457 4.67222 41.1286 4.67067C40.2005 4.78018 35.2454 5.23871 34.9153 5.36358C34.9056 5.36888 35.6023 5.31533 35.1371 5.4025C34.5194 5.51857 35.0657 5.3069 34.3293 5.38084C34.2277 5.39014 32.1859 5.64947 32.1279 5.66626C31.5228 5.82217 33.3027 5.64087 33.2761 5.65413C33.2197 5.68477 31.747 5.87708 31.6844 5.87929C31.6275 5.88023 32.8189 5.62581 31.3755 5.84278C31.5389 5.83599 31.7117 5.82809 31.8783 5.821C31.1955 5.92948 31.13 5.86172 30.9628 5.87748C30.4445 5.92618 29.9079 6.10741 29.0714 6.0685C28.8502 6.05809 29.2046 5.97218 29.1767 5.96998C28.9126 5.95176 28.5892 6.12806 28.1893 6.07627C28.1572 6.07275 29.064 5.89876 27.4684 6.0976C27.5802 6.09337 27.6916 6.08919 27.8027 6.08507C27.5763 6.13486 25.9662 6.34961 25.7499 6.37186C25.1126 6.43708 25.6565 6.29863 25.0201 6.38722C25.4422 6.4297 23.5024 6.68732 23.6054 6.59191C23.3469 6.72817 21.6871 6.85895 20.914 6.95501C20.4226 7.01607 19.4331 7.18745 19.2763 7.20216C19.0871 7.21982 19.1359 7.1429 18.7926 7.17096C18.6936 7.17909 17.685 7.35963 16.7804 7.40196C16.6064 7.41006 16.2282 7.33844 16.5456 7.26794C17.0873 7.1475 18.1444 7.10916 18.1199 7.04144C18.0978 6.96845 16.6963 7.19244 16.3203 7.23056C14.569 7.40839 15.5678 7.20029 15.5187 7.18215C15.3966 7.13846 14.4431 7.26199 14.4015 7.26197C14.2331 7.25978 14.9051 7.12712 14.9103 7.09028C14.9168 7.04235 13.986 7.07611 14.1935 7.03377C14.4888 6.97354 15.3441 6.93523 15.3956 6.92526C16.0837 6.79172 15.1197 6.80597 14.8489 6.78707C14.7671 6.78106 15.0816 6.71389 15.0148 6.71759C13.995 6.77454 14.8193 6.89549 14.147 6.96617C13.5478 7.02914 14.3077 6.8607 14.284 6.85977C14.2545 6.8592 13.5391 6.94656 13.4229 6.93607C13.3667 6.93061 15.2109 6.5562 15.125 6.50477C14.5323 6.59417 13.941 6.68336 13.3478 6.77275C13.2915 6.69861 14.1532 6.64856 14.2393 6.62919C14.4143 6.59004 13.9152 6.61257 13.933 6.58458C13.9425 6.56701 14.515 6.43563 13.9881 6.4788C13.8075 6.49353 13.4331 6.59831 12.7681 6.62483C15.0511 6.25933 13.4574 6.41684 13.3858 6.39717C13.316 6.37727 14.403 6.17086 13.0742 6.3523C12.9964 6.20397 13.0971 6.29936 13.4715 6.2238C13.9295 6.13119 12.8549 6.21618 14.5485 6.03964C14.4399 5.97942 13.088 6.15711 13.0124 6.16082C12.9494 6.16349 13.2479 6.08899 13.1383 6.09062C11.8486 6.11184 12.7304 6.06483 12.3506 6.02181C12.3178 6.01783 11.1061 6.13824 12.0234 6.0081C13.688 5.77183 14.3982 5.78607 14.6519 5.52925C13.4052 5.5909 11.9293 5.92384 11.5522 5.97428C10.9803 6.0506 11.5675 5.93008 11.4953 5.92644C11.4706 5.92546 10.9771 5.99203 10.9698 5.98932C10.5954 5.86584 13.1717 5.70616 13.9726 5.5741C13.7545 5.57628 13.5358 5.57853 13.3166 5.58086C13.6097 5.54245 13.901 5.50427 14.1927 5.46603C12.7966 5.59259 14.1386 5.45343 14.4724 5.27218C14.5469 5.23154 13.6347 5.40136 14.6716 5.18246C13.8961 5.26145 14.1405 5.20194 13.448 5.32935C13.4587 5.27245 15.0207 5.01046 15.636 4.90337C13.4414 5.12106 14.7152 5.16235 12.8084 5.29769C12.4665 5.41007 13.3686 5.28167 13.2964 5.30223C13.0352 5.37638 12.4125 5.39095 11.6804 5.62722C11.5619 5.66579 12.0847 5.67155 11.3241 5.76488C11.2403 5.77506 10.7475 5.77597 10.7535 5.77072C10.812 5.71489 11.2939 5.67171 11.311 5.64934C11.3274 5.62813 10.7937 5.70753 10.7909 5.70258C10.7671 5.645 11.2348 5.62294 11.1651 5.61283C11.0152 5.59063 9.07123 5.70747 11.5897 5.42526C9.5131 5.75802 11.3291 5.52545 12.1422 5.39551C12.3488 5.36259 12.3968 5.32026 12.6897 5.27036C13.0673 5.20596 13.5169 5.166 13.7117 5.13451C13.9224 5.10029 12.7098 5.16941 14.4513 4.97276C13.556 5.00189 12.0039 5.29057 11.1275 5.34227C9.35805 5.44658 12.3331 5.04216 12.6397 4.99124C12.7216 4.97762 12.4395 4.96468 12.494 4.95474C12.5816 4.939 14.273 4.74588 14.4372 4.68444C14.5986 4.6234 13.8169 4.76545 13.761 4.73041C13.719 4.70741 15.7543 4.39728 14.6485 4.51902C13.8834 4.60339 12.4981 4.89413 12.2478 4.80335C13.3636 4.65104 14.4824 4.49809 15.5981 4.3455C14.979 4.37788 14.3618 4.40999 13.7444 4.4421C14.9998 4.26714 16.0863 4.18105 17.2733 3.96272C14.3902 4.18127 18.1848 3.72701 18.2279 3.70336C18.2395 3.69098 17.0981 3.7153 16.9134 3.71669C17.9048 3.54332 20.9412 3.13348 19.1444 3.21266C19.4738 3.20448 20.2382 3.02358 20.2299 3.01833C20.123 2.96569 18.4233 3.22533 18.6951 3.13089C19.0061 3.02184 19.4745 3.05624 19.965 2.98624C22.5009 2.62439 21.7638 2.37212 24.3187 2.10371C24.2666 2.09798 24.2145 2.09225 24.1623 2.08654C26.9368 1.75592 29.7129 1.42863 32.4946 1.11445C33.5673 0.878952 36.4598 0.476722 37.8918 0.334848C38.181 0.304645 39.6012 0.210181 39.7096 0.209762C39.9066 0.207798 38.8245 0.327027 39.318 0.310573C39.4089 0.305313 41.5128 0.117778 41.6523 0.0636518C41.7609 0.0517039 41.7663 0.0477095 41.6513 0.052819C41.6512 0.0527885 41.6511 0.0527589 41.651 0.0527284C41.3863 0.0694828 40.5412 0.180455 40.3993 0.181117C40.0704 0.181363 40.6764 0.105121 41.6475 0.0113389C41.9405 -0.01088 42.3709 -0.0259964 42.9414 0.226133C43.6079 0.446534 44.3217 1.51448 44.3421 2.02349C44.4215 2.47228 44.3761 2.78153 44.3321 3.01662C44.2913 3.2135 44.2591 3.3093 44.2189 3.42693C44.1336 3.6638 44.077 3.7738 44.0159 3.89694C43.9533 4.02027 43.8942 4.12399 43.8449 4.20762C43.621 4.58276 43.4382 4.83683 43.2351 5.11637C42.8381 5.65668 42.4432 6.14488 42.0703 6.59892C41.3412 7.4831 40.7299 8.18418 40.6655 8.28036C40.7845 8.17164 40.912 8.05251 41.0355 7.93752C40.7143 8.29844 40.3965 8.65054 40.0844 8.99331ZM27.318 6.35106C27.0541 6.44326 26.3461 6.48753 25.9447 6.55467C25.3807 6.64884 24.4493 6.99462 24.8341 6.71738C25.6608 6.59497 26.4938 6.47217 27.318 6.35106ZM39.449 5.00646C38.8923 5.03373 39.3066 4.86198 39.7693 4.86675C39.8188 4.86773 40.2057 4.97 39.449 5.00646ZM33.6197 5.60666C33.6439 5.60204 34.125 5.5483 34.141 5.54844C34.578 5.5478 33.1263 5.70976 33.6197 5.60666ZM27.5476 15.823C27.9633 15.368 27.5747 15.6169 27.3489 15.9291C27.3347 15.9487 27.5203 15.8528 27.5476 15.823ZM27.8494 15.503C28.2549 15.2184 28.7528 14.3746 28.2493 14.948C28.2009 15.0032 27.8309 15.5155 27.8494 15.503ZM37.4678 5.1711C37.5233 5.12503 38.1024 5.08003 38.3456 5.06314C38.3461 5.09928 37.7014 5.14041 37.4678 5.1711ZM34.1617 8.53316C34.1632 8.58021 35.5081 7.07744 35.5588 6.9556C35.3709 7.19603 34.1511 8.50502 34.1617 8.53316ZM30.7252 12.3627C30.7614 12.3314 31.2288 11.8114 31.1943 11.8083C30.9362 12.0361 30.5528 12.5139 30.7252 12.3627ZM23.7107 19.9119C23.6851 19.9573 24.2024 19.6139 23.215 20.584C23.0694 20.7297 23.5092 20.1409 23.4552 20.1971C23.353 20.2956 23.2628 20.3925 23.2014 20.4639C23.6125 19.9534 24.0367 19.493 24.0863 19.4541C24.3195 19.2754 23.72 19.8934 23.7107 19.9119ZM26.8099 26.076C26.924 26.037 27.6213 25.9597 27.8501 25.9391C27.8641 25.9379 27.8764 25.937 27.8867 25.9363C27.9168 25.9344 27.7966 26.0263 28.1361 25.9745C28.4115 25.9323 27.9913 25.9124 28.5228 25.8521C29.0599 25.7909 28.3514 25.9431 28.3987 25.9405C28.4644 25.9368 29.2851 25.7894 29.2649 25.8371C29.2527 25.8721 28.3604 25.9721 28.1424 26.0088C27.8934 26.0507 28.1374 26.062 27.8719 26.0998C27.8358 26.1049 27.791 26.1105 27.7356 26.1165C27.4333 26.1494 27.588 26.0312 27.524 26.0347C27.4733 26.0403 26.3922 26.226 26.8116 26.0761C26.811 26.076 26.8105 26.076 26.8099 26.076ZM23.0907 20.6034C23.1226 20.5596 23.156 20.5167 23.2014 20.4639C23.164 20.5103 23.1305 20.5529 23.0907 20.6034ZM28.9239 6.10831C29.2186 6.10181 28.358 6.24707 28.0322 6.24838C28.0218 6.21787 28.8767 6.10943 28.9239 6.10831ZM22.7531 21.1603C22.0505 22.1474 22.5519 21.2775 23.0907 20.6034C22.9241 20.8369 22.9735 20.8815 22.7531 21.1603ZM38.9914 3.04562C38.9644 3.06819 38.9418 3.07864 38.9256 3.06935C38.9982 3.01021 39.0112 3.01108 38.9914 3.04562ZM37.7469 4.50645C37.3605 5.04936 38.2345 4.01391 38.1931 3.99684C38.1764 3.99417 37.7687 4.47832 37.7469 4.50645ZM27.0033 16.3997C27.0497 16.3579 26.5111 17.1857 27.3802 16.0652C26.8531 16.6021 27.3805 16.0084 27.3612 16.0072C27.3094 16.0003 26.4785 16.9527 26.2743 17.1443C26.1821 17.3554 26.8472 16.5408 27.0022 16.4009C27.0026 16.4005 27.003 16.4001 27.0033 16.3997ZM36.4355 24.8749C36.2736 24.9374 35.7401 24.9825 35.3812 25.0221C35.5433 24.9578 36.0769 24.911 36.4355 24.8749ZM14.329 17.1539C12.945 19.2416 12.6202 19.3994 13.967 17.5585C13.9929 17.5234 14.4003 17.0176 14.329 17.1539ZM11.9158 27.8802C12.1453 27.9765 11.3653 27.9334 10.8634 27.8612C10.7495 27.845 10.3337 27.7311 10.8173 27.7535C10.793 27.8488 11.5394 27.9426 11.9158 27.8802ZM22.4133 21.749C22.3417 21.9686 22.0949 22.1559 21.888 23.1743C21.8498 23.4417 21.8283 23.8198 21.9554 24.2733C22.0735 24.7244 22.3931 25.1946 22.6866 25.4486C23.3029 25.9733 23.7053 26.0235 23.942 26.0976C23.7824 26.062 23.5339 26.0411 23.0289 25.7456C22.7933 25.6007 22.46 25.3412 22.1996 24.9233C21.9378 24.514 21.82 24.0062 21.8156 23.6338C21.818 22.8827 22.0007 22.5588 22.1143 22.2831C22.2301 22.0366 22.3349 21.8702 22.4133 21.749ZM9.83044 23.9018C9.69469 24.1197 9.66603 24.3067 9.69362 24.2708C9.81754 24.1103 10.0129 23.671 9.83044 23.9018ZM24.2493 19.5033C24.2955 19.4954 23.5906 20.3156 23.4814 20.3302C23.6432 20.1465 24.2141 19.5091 24.2493 19.5033ZM35.7569 24.9267C35.601 24.928 36.3964 24.8089 36.638 24.7999C36.622 24.835 35.8596 24.9249 35.7569 24.9267ZM7.8412 27.5381C7.79452 27.6228 7.72058 27.7623 7.65028 27.902C7.55637 28.0877 7.4871 28.2463 7.49024 28.2783C7.49313 28.3189 7.58207 28.1404 7.68633 27.9204C7.76587 27.7516 7.837 27.5863 7.8412 27.5381ZM9.45433 5.87347C9.48556 5.8837 8.59557 6.02284 8.20285 6.02877C7.452 6.03503 9.41731 5.86023 9.45433 5.87347ZM11.0757 21.7969C11.524 21.2128 11.0344 21.8654 11.1099 21.8765C11.3736 21.4595 12.0422 20.4353 11.5283 21.1043C11.4263 21.2379 11.2034 21.6025 11.0757 21.7969ZM10.6984 22.3558C10.6738 22.4375 10.4621 22.9162 10.694 22.5304C10.8035 22.3486 10.9167 22.0186 10.6984 22.3558ZM4.47877 6.50177C4.39815 6.51444 4.42394 6.48352 4.6222 6.41717C4.81853 6.35073 5.22554 6.2663 5.61595 6.21157C6.01413 6.15421 6.37404 6.12135 6.39975 6.12177C6.44344 6.12247 6.47274 6.12459 6.48959 6.12727C6.58789 6.0954 7.13781 6.0377 7.20362 6.08222C7.04046 6.09195 6.59203 6.1419 6.54421 6.14242C6.52276 6.14243 6.50496 6.14222 6.49343 6.14127C6.41893 6.16706 6.03306 6.21222 5.62538 6.27241C4.97958 6.35976 4.47504 6.50179 4.47877 6.50177ZM4.04348 9.0443C3.96819 8.4926 4.15928 8.35298 4.15276 8.41744C4.1568 9.07806 4.08205 8.64239 4.07361 8.66338C4.05648 8.71713 4.09637 9.13909 4.04349 9.04266C4.04349 9.04321 4.04348 9.04375 4.04348 9.0443ZM4.44876 6.44571C4.44641 6.4482 4.39968 6.49978 4.3756 6.51796C4.34947 6.538 4.3731 6.5241 4.37609 6.52467C4.44649 6.51673 4.33896 6.58871 4.40262 6.5444C4.47187 6.48893 4.529 6.37428 4.44876 6.44571ZM30.8615 25.4223C31.3172 25.3761 30.8818 25.492 30.574 25.5134C30.5488 25.5148 30.4576 25.4635 30.8615 25.4223ZM10.5227 22.6693C10.4468 22.7515 9.06113 25.0212 9.22191 24.9316C9.31019 24.7257 10.9137 22.1488 10.5227 22.6693ZM17.8115 28.5825C17.2511 28.4767 17.8677 28.5029 18.1859 28.6117C18.3011 28.6503 17.9525 28.6091 17.8115 28.5825ZM25.24 18.5507C25.5508 18.153 25.5883 18.3308 25.254 18.614C25.2409 18.625 25.2279 18.5662 25.24 18.5507ZM13.7385 28.0787C15.4316 28.1641 14.997 28.3777 12.8331 28.1332C12.9016 28.1267 12.9701 28.1202 13.0385 28.1138C10.5535 27.8964 12.8643 28.0825 13.4834 28.1138C13.7176 28.1257 13.5245 28.0686 13.7369 28.0782C13.7374 28.0784 13.738 28.0785 13.7385 28.0787ZM21.3286 32.0425C21.2617 32.6001 21.1437 32.8114 21.0921 32.941C21.0366 33.0585 21.0205 33.068 21.0377 32.9999C21.0422 32.8509 21.3392 32.4423 21.1804 31.3199C21.0896 30.7676 20.7226 30.1482 20.3413 29.806C19.9603 29.45 19.6085 29.2685 19.3142 29.1317C18.7271 28.8712 18.3014 28.7814 18.0339 28.7236C18.5435 28.7912 19.2376 29.0084 19.5856 29.1829C19.7556 29.2641 19.8011 29.2823 19.6438 29.1829C19.4891 29.0868 19.1328 28.8991 18.6392 28.7347C19.3592 28.9394 20.05 29.2879 20.5176 29.7715C20.9865 30.256 21.1097 30.6532 21.1412 30.7342C21.2127 30.9209 20.877 30.2754 20.9401 30.4178C21.0281 30.5684 21.2044 30.9312 21.2741 31.2882C21.35 31.6454 21.3379 31.9482 21.3286 32.0425ZM15.9506 28.3224C15.8504 28.3158 15.133 28.2104 14.8762 28.1959C15.2345 28.1591 16.5974 28.3542 15.9506 28.3224ZM5.73144 8.78728C5.68183 8.841 5.55096 8.89632 5.04427 8.92417C5.19729 8.88677 5.51556 8.83354 5.73144 8.78728ZM26.7633 6.16276C26.3838 6.20678 25.6373 6.28223 25.8721 6.30419C25.8965 6.30547 26.7656 6.19134 26.7633 6.16276ZM7.19326 28.0192C7.19116 27.998 7.06096 27.6701 6.87834 27.5063C6.70031 27.3419 6.67505 27.3684 6.75338 27.3904C6.91815 27.4482 7.20908 27.499 6.96991 27.4124C6.93859 27.3999 6.83922 27.3691 6.77514 27.3435C6.7099 27.3241 6.70874 27.2868 6.88936 27.4463C7.07871 27.5982 7.26319 28.0321 7.26249 28.1617C7.272 28.2979 7.28417 28.3054 7.19326 28.0192ZM11.9952 20.2943C11.9011 20.4354 11.5293 21.0247 11.5319 21.0429C11.5388 21.1041 11.9859 20.376 11.9952 20.2943ZM24.8605 6.35199C24.8123 6.35293 23.661 6.50753 23.7922 6.51472C24.0335 6.52907 25.0343 6.34754 24.8605 6.35199ZM32.5007 25.0886C32.5962 25.0743 32.7292 25.1102 32.762 25.1065C32.8402 25.0955 34.5803 24.8558 33.923 25.0068C33.8144 25.0286 31.3002 25.3315 30.9704 25.3718C30.8345 25.3169 31.9177 25.2405 32.1788 25.199C32.2245 25.1915 32.2454 25.1275 32.5 25.089C32.5002 25.0889 32.5005 25.0887 32.5007 25.0886ZM3.3537 8.93442C3.34651 8.94037 3.31318 8.94289 3.27091 8.94217C3.36097 8.96163 3.61201 9.03953 3.804 9.22181C3.99543 9.40265 4.02499 9.53972 4.02323 9.53247C4.0086 9.52232 3.98951 9.23746 4.01758 9.25529C4.0253 9.44231 4.08079 9.58724 4.04833 9.48971C4.0286 9.44319 3.96398 9.31341 3.80244 9.17538C3.64445 9.03546 3.40881 8.94341 3.27369 8.92468C3.29798 8.92803 3.32471 8.93132 3.3537 8.93442ZM4.12226 8.97043C4.49167 8.99513 3.61313 9.02676 3.44491 8.9811C3.42428 8.95716 4.05136 8.97434 4.12226 8.97043ZM9.79255 23.478C9.69683 23.6599 10.0786 23.1532 10.0173 23.2812C9.97803 23.3615 9.72036 23.7441 9.66619 23.8781C9.65071 23.917 9.94179 23.5496 10.0097 23.4319C10.105 23.266 9.96694 23.3991 10.074 23.2206C10.4322 22.6251 10.7855 22.1233 11.1348 21.5712C11.1663 21.5212 10.8917 21.8885 11.1614 21.4645C11.2022 21.4005 11.4972 21.0338 11.8198 20.5259C12.4132 19.3235 13.0924 18.6069 14.018 17.159C13.97 17.2012 13.2073 18.2399 13.1688 18.2953C12.3392 19.4531 10.9471 21.5684 10.1898 22.826C9.99149 23.1519 10.118 23.0099 10.0349 23.1496C9.96958 23.26 9.99404 23.095 9.79255 23.478ZM26.9584 6.10295C26.7727 6.06228 26.1453 6.18143 25.7464 6.22835C25.894 6.26741 26.5644 6.13809 26.9584 6.10295ZM13.5403 8.03244C13.7839 8.02378 14.6818 8.16512 14.8114 8.19785C14.8676 8.1987 14.5204 8.09921 14.1922 8.05895C13.8788 8.01636 13.5621 8.0119 13.5403 8.03244ZM40.0266 22.5453C40.0273 22.5365 40.0365 22.4511 40.0486 22.3982C40.0588 22.3493 40.0711 22.3109 40.0751 22.299C40.0832 22.2773 40.0596 22.3267 40.0571 22.3282C39.9826 22.4179 40.062 22.236 40.0379 22.2929C40.0313 22.314 40.02 22.351 40.0081 22.4256C39.994 22.5097 39.9886 22.632 39.9964 22.7261C40.0254 22.9413 40.0017 22.8617 40.0266 22.5453ZM32.8792 29.9232C32.6096 30.1861 32.3613 30.4437 32.2344 30.4912C32.4094 30.3401 32.8851 29.8688 32.8792 29.9232ZM20.8836 40.5472C20.9841 40.5504 20.1146 41.2319 19.9484 41.3644C19.9901 41.2902 20.8096 40.5468 20.8836 40.5472ZM5.83126 8.98859C5.19071 9.05667 5.33505 9.14224 4.93673 9.13107C4.87685 9.12651 4.64112 8.93854 5.33687 8.95334C5.4648 8.9535 4.97325 9.0596 5.83126 8.98859ZM12.4814 28.1057C12.3051 28.1378 11.7672 28.0859 11.4062 28.0554C11.4889 28.0286 12.2209 28.0904 12.4814 28.1057ZM22.7793 6.56406C22.4578 6.54136 20.9967 6.77423 21.3651 6.7693C21.4145 6.76845 22.5772 6.58727 22.7793 6.56406ZM24.5982 25.9999C25.0597 25.9963 24.8615 25.9907 24.3457 25.9277C24.0825 25.8712 23.6892 25.8807 23.0043 25.4149C22.6612 25.176 22.3074 24.7062 22.1786 24.2773C22.0394 23.8448 22.0551 23.519 22.0639 23.3322C22.059 23.4898 21.9864 23.937 22.2815 24.5818C22.5889 25.2483 23.2187 25.6331 23.5597 25.763C24.2741 26.027 24.5476 25.9827 24.5982 25.9999ZM23.8362 38.0631C23.8162 38.0833 23.3251 38.5009 23.301 38.5183C22.8673 38.8244 24.2559 37.643 23.8362 38.0631ZM35.6753 27.3596C35.5461 27.5474 34.4364 28.5766 34.1643 28.7767C34.3614 28.512 35.8467 27.1237 35.6753 27.3596ZM8.54521 8.57769C8.06251 8.6521 7.60828 8.70799 7.17227 8.75291C7.25588 8.70754 8.48676 8.56068 8.54521 8.57769ZM22.0511 39.6045C22.025 39.6264 21.9973 39.6451 21.9722 39.666C21.999 39.645 22.0255 39.6245 22.0511 39.6045ZM15.0441 15.5232C14.8032 15.8564 14.9008 15.8233 14.9176 15.8022C15.1075 15.5588 15.3246 15.1318 15.0441 15.5232ZM26.4849 6.06819C26.3332 6.02998 25.6682 6.15792 25.2711 6.19439C25.3934 6.22414 26.1677 6.11394 26.4849 6.06819ZM20.4441 34.2912C20.2758 34.5738 20.5329 33.8863 20.7939 33.2629C21.0598 32.7359 21.2088 31.7 21.0349 31.1635C21.0329 31.1307 21.1646 31.5011 21.1527 31.9785C21.1464 32.4544 21.0078 32.9299 20.8556 33.2904C20.6707 33.7549 20.4624 34.2606 20.4441 34.2912ZM22.777 21.7154C22.8514 21.6557 23.4447 20.8055 23.2925 20.9696C23.1999 21.0506 22.7427 21.7012 22.777 21.7154ZM19.3261 29.2411C19.0096 29.101 18.4366 28.89 18.6528 28.9269C18.9274 28.9662 19.4014 29.2668 19.3261 29.2411ZM8.31107 25.9899C8.262 26.0612 7.77523 27.0695 8.0331 26.6826C8.21208 26.4142 8.17876 26.3417 8.21529 26.2735C8.2544 26.1946 9.19389 24.6606 8.31107 25.9899ZM15.9399 44.9365C16.0753 44.5291 16.2799 44.0545 16.4409 43.6418C16.3994 43.8192 16.0385 44.7746 15.9399 44.9365ZM26.4325 25.8332C26.3627 25.8275 25.6085 25.9218 24.8519 25.9025C24.4824 25.8983 24.0356 25.8169 23.9175 25.7855C23.7889 25.753 24.2297 25.9131 24.8191 25.9421C25.0647 25.9929 26.7937 25.8579 26.4325 25.8332ZM5.83126 8.98859C5.9113 8.97969 6.00467 8.97058 6.11481 8.96121C6.00576 8.97312 5.91205 8.98139 5.83126 8.98859ZM13.8926 8.16483C13.6735 8.17523 14.7352 8.27103 15.2218 8.46679C15.2911 8.47068 14.905 8.31638 14.5579 8.25196C14.2198 8.18281 13.906 8.16429 13.8926 8.16483ZM16.4113 43.5937C16.4887 43.3457 16.6797 42.919 16.7978 42.6204C16.8044 42.6828 16.4801 43.5001 16.4113 43.5937ZM19.4024 42.0089C18.9899 42.3359 18.5024 42.7705 18.5191 42.805C18.5071 42.8079 18.4837 42.8201 18.4478 42.8433C18.4136 42.8646 17.9954 43.2539 17.8044 43.4072C17.0794 43.9874 18.9265 42.3404 19.6778 41.7538C19.9904 41.5051 20.098 41.4378 19.7125 41.7949C19.5531 41.9419 19.3317 42.1427 19.0016 42.4411C19.1352 42.2963 19.2704 42.1509 19.4024 42.0089ZM37.1628 25.9882C37.4016 25.809 37.9068 25.1949 37.7517 25.3325C37.6545 25.421 36.928 26.1661 37.1628 25.9882ZM29.019 33.7152C29.0921 33.6608 29.6684 33.1006 29.6663 33.0704C29.3118 33.3568 28.6925 33.9577 29.019 33.7152ZM38.7015 24.4212C38.8186 24.3004 38.9168 24.0778 38.9 24.0921C38.7544 24.2205 38.4792 24.6092 38.7015 24.4212ZM7.20971 9.0019C7.47957 8.98467 8.33526 8.80342 8.51953 8.72749C8.55624 8.73134 8.65334 8.72892 8.83048 8.71715C8.82995 8.71723 8.82942 8.71731 8.82889 8.71739C8.94971 8.71325 10.7721 8.42904 12.099 8.33419C12.7601 8.28296 13.2937 8.28836 13.3002 8.27814C13.2985 8.27203 12.7322 8.21884 11.4612 8.321C11.3048 8.33466 11.5163 8.35207 10.8833 8.41632C10.8415 8.42074 10.8167 8.38829 10.6868 8.40243C10.3856 8.43001 8.84506 8.62952 8.5535 8.70389C8.54996 8.69787 8.52946 8.6947 8.487 8.69533C8.10556 8.70239 6.99901 9.01707 7.20971 9.0019ZM27.8355 34.7789C27.9643 34.6821 28.3426 34.3291 28.3606 34.2715C28.1606 34.4299 27.5359 35.0044 27.8355 34.7789ZM26.3218 25.7174C25.9843 25.7378 24.9775 25.8253 25.2813 25.8379C25.5064 25.8621 26.7399 25.7057 26.3218 25.7174ZM31.6249 31.3382C30.2069 32.5874 31.2956 31.644 31.1128 31.8729C31.2856 31.6932 31.4564 31.5149 31.6249 31.3382ZM3.98423 7.41026C3.92577 7.68249 3.89199 7.34842 4.00096 7.04266C4.03516 6.94699 4.01695 7.25829 3.98423 7.41026ZM14.1957 5.41643C13.938 5.34103 15.1887 5.36857 14.703 5.43016C14.6826 5.43217 14.2122 5.41905 14.1957 5.41643ZM5.005 5.97635C4.86169 6.06383 4.71213 6.09231 4.38659 6.1908C4.90792 6.01431 4.35698 6.11298 5.005 5.97635ZM18.5272 42.8057C18.5232 42.8062 18.52 42.8069 18.5191 42.805C18.5233 42.8041 18.5257 42.8044 18.5272 42.8057ZM39.7462 23.1486C39.8247 23.0836 39.9504 22.9309 40.026 22.8183C40.0981 22.7115 40.1346 22.6295 40.0735 22.6821C40.0758 22.6785 39.7723 23.0644 39.7462 23.1486ZM8.51953 8.72749C8.48698 8.72409 8.50215 8.71647 8.5535 8.70389C8.55683 8.70956 8.54422 8.71728 8.51953 8.72749ZM37.5441 25.7022C37.534 25.6658 36.8405 26.3604 36.8109 26.3939C36.451 26.8426 37.2575 26.0076 37.5441 25.7022ZM25.3411 19.0187C25.374 18.9783 25.0807 19.1633 24.9647 19.3378C24.8751 19.4729 25.2182 19.1701 25.3411 19.0187ZM6.77026 5.70501C7.07484 5.6738 7.5047 5.63792 7.59081 5.67321C7.38254 5.68208 6.76401 5.73538 6.77026 5.70501ZM13.7054 5.36786C13.3293 5.42382 12.4733 5.44307 11.927 5.45164C11.9161 5.38586 13.3515 5.38817 13.7054 5.36786ZM6.36687 9.09386C6.38927 9.09494 7.1705 9.00617 7.05815 8.97765C6.8938 8.93827 6.14605 9.09953 6.36687 9.09386ZM24.2235 20.1514C24.044 20.3847 24.3892 20.0884 24.6616 19.7892C24.7388 19.7039 24.809 19.6175 24.8568 19.5427C24.909 19.4609 24.7721 19.5873 24.6134 19.7441C24.4353 19.9207 24.2471 20.1214 24.2235 20.1514ZM40.9442 23.8423C41.1949 23.9922 41.2563 23.988 41.2874 24.0058C41.3154 24.0168 41.2994 24.0175 41.2419 24.0033C41.1991 23.9918 41.0422 23.9525 40.8354 23.8053C40.6294 23.6674 40.3774 23.3514 40.2941 23.0471C40.1575 22.4605 40.2866 22.3955 40.2731 22.3742C40.2797 22.3629 40.2663 22.4085 40.2685 22.4282C40.2923 22.3948 40.3143 22.3159 40.2847 22.4754C40.2763 22.587 40.2321 22.7379 40.3586 23.118C40.4825 23.474 40.7804 23.7453 40.9442 23.8423ZM30.083 32.9159C31.2783 32.0088 30.5144 32.3796 30.334 32.5718C30.3088 32.5987 30.0539 32.938 30.083 32.9159ZM19.0679 6.77341C18.8605 6.81815 19.6504 6.78365 19.7475 6.72767C19.8072 6.69276 19.1984 6.7451 19.0679 6.77341ZM13.1735 47.9536C13.2155 47.9093 13.2622 47.8601 13.3031 47.8171C13.2745 47.8499 13.2287 47.8985 13.1735 47.9536ZM37.6917 24.0685C38.7344 24.1569 38.6139 24.03 38.7023 24.0224C38.8961 24.0084 39.3444 24.0243 39.701 23.995C39.2943 24.0403 38.878 24.0924 38.4685 24.148C38.7788 24.1195 41.1991 24.0364 41.5358 24.0662C41.5005 24.0641 41.4653 24.0584 41.459 24.0553C41.4292 24.0422 41.4843 24.0439 41.5365 24.0405C41.3729 24.0158 40.8434 24.0286 40.8254 24.0275C40.7909 24.0228 40.6489 23.908 40.5715 23.9061C40.4544 23.8835 38.0809 24.0484 37.6917 24.0685ZM32.3646 30.8012C32.1797 30.9534 32.097 30.9658 32.0222 31.0501C31.9967 31.0789 32.0224 31.1161 31.934 31.2133C32.0788 31.0752 32.2226 30.9375 32.3646 30.8012ZM35.8619 24.427C35.563 24.4048 36.8772 24.2805 36.9181 24.2843C37.1461 24.2972 36.1061 24.443 35.8619 24.427ZM37.9072 25.3781C37.9531 25.3375 38.6279 24.6316 38.6026 24.6105C38.4092 24.7977 37.4988 25.753 37.9072 25.3781ZM31.8207 31.3218C31.5589 31.5561 31.0237 31.9843 31.1266 31.9814C31.127 31.981 31.1274 31.9807 31.1278 31.9803C31.3624 31.7584 31.5934 31.5388 31.8207 31.3218ZM23.46 21.26C24.0148 20.7539 23.6865 20.9196 23.2377 21.4448C23.1504 21.6422 23.3635 21.351 23.46 21.26ZM25.0227 19.6163C25.1641 19.4937 26.455 18.0806 26.2138 18.2556C26.1293 18.3166 25.4128 19.1584 25.3768 19.1911C25.3201 19.2432 25.5137 18.9441 25.1225 19.3809C25.1615 19.3703 24.9745 19.6585 25.0227 19.6163ZM23.9025 20.8327C24.4342 20.3453 24.422 20.1437 24.0711 20.5337C23.9328 20.6892 23.8262 20.9038 23.9025 20.8327ZM24.0122 25.477C23.8901 25.4363 23.695 25.393 23.3641 25.1867C23.0506 25.0169 22.5463 24.4225 22.4956 23.8385C22.43 23.2729 22.5585 22.9556 22.6371 22.7142C22.729 22.4651 22.8139 22.2989 22.8812 22.1574C22.7763 22.3376 22.6542 22.5541 22.5501 22.8773C22.4663 23.172 22.2777 23.8063 22.7152 24.5715C23.1837 25.2942 23.7304 25.4121 24.0206 25.5046C24.3402 25.5862 24.561 25.6018 24.775 25.6152C24.8678 25.5858 24.4697 25.6096 24.0088 25.4761C24.0099 25.4764 24.0111 25.4767 24.0122 25.477ZM17.6654 4.93945C17.1399 4.89875 18.349 4.87802 18.4023 4.88891C18.5537 4.92339 17.902 4.95742 17.6654 4.93945ZM14.8095 5.93925C14.6619 5.94095 14.5599 5.89757 14.242 5.96768C14.5708 5.96736 14.8982 5.96721 15.2242 5.96724C15.4614 5.84156 14.9711 5.93754 14.8095 5.93925ZM13.5369 5.75305C13.5819 5.745 13.3159 5.63222 13.9143 5.65384C14.3196 5.66829 12.1713 6.00671 11.7716 5.99249C12.2007 5.90763 13.1459 5.82175 13.5369 5.75305ZM9.67764 5.60935C9.65169 5.60096 10.4669 5.48021 10.5645 5.47604C11.0688 5.45538 9.81899 5.65411 9.67764 5.60935ZM12.2963 5.30419C11.9092 5.32503 12.7553 5.19886 13.0127 5.18242C13.0394 5.20632 12.3565 5.30068 12.2963 5.30419ZM12.2996 2.9062C11.8759 2.81871 11.5035 3.04295 12.1528 2.98132C12.1832 2.97845 12.3175 2.91056 12.2996 2.9062ZM10.4599 5.36196C10.8488 5.34101 9.99762 5.4676 9.74326 5.4835C9.7166 5.45962 10.3994 5.36551 10.4599 5.36196ZM11.9963 2.67888C11.4357 2.62416 11.6384 2.85741 11.7096 2.86474C11.9975 2.89312 12.9828 2.77449 13.1849 2.74752C11.7055 2.81804 12.2628 2.70583 11.9963 2.67888ZM9.41393 2.92176C8.89475 2.97305 10.2271 2.95588 10.4786 2.88158C10.2185 2.89458 9.56471 2.90625 9.41393 2.92176ZM6.22773 3.0824C6.00934 3.09862 5.46569 3.15151 5.15137 3.21241C5.04966 3.2315 4.9755 3.24963 4.94281 3.26425C4.99739 3.25388 5.06962 3.24222 5.1541 3.23001C5.53868 3.17266 6.13095 3.12422 6.22773 3.0824ZM5.56501 3.0488C5.10443 3.06111 5.01779 3.22505 5.53266 3.10702C5.55264 3.10258 5.58214 3.04938 5.56501 3.0488ZM2.80377 3.73334C2.39113 3.89673 2.06995 4.36986 2.65792 3.92548C2.8331 3.81401 2.84632 3.71895 2.80377 3.73334ZM11.2865 2.44374C10.8715 2.43234 10.3488 2.55487 11.2269 2.53491C10.9163 2.5612 10.6096 2.58841 10.3019 2.61693C11.4546 2.62939 11.3636 2.49303 11.6965 2.48775C12.1552 2.48245 12.1257 2.60191 12.0326 2.64152C12.4087 2.55681 14.0136 2.51957 14.9381 2.49527C14.1235 2.47496 12.8022 2.44819 11.9947 2.453C11.7646 2.45398 11.5418 2.49328 11.3461 2.49611C11.0328 2.50062 11.3098 2.44466 11.2881 2.44368C11.2875 2.4437 11.287 2.44372 11.2865 2.44374ZM1.03188 7.38578C0.840033 8.27081 1.05577 7.71782 1.11096 7.22065C1.11241 7.19888 1.03684 7.36314 1.03188 7.38578ZM9.30361 5.06556C10.4201 4.98468 9.62489 5.16679 11.9305 4.75056C10.963 4.96066 11.8845 4.81891 11.6978 4.87772C11.5465 4.92473 10.9747 4.97453 11.313 4.98733C10.8696 4.98307 8.97347 5.24077 8.88563 5.24196C8.88643 5.24186 8.88723 5.24175 8.88803 5.24165C8.83617 5.24238 8.94649 5.0915 9.30361 5.06556ZM6.18264 2.70664C5.869 2.56584 5.79577 2.85013 5.19278 2.78998C5.14502 2.81083 5.11288 2.82776 5.09386 2.84112C5.06062 2.86359 5.06525 2.87592 5.09993 2.88031C5.3721 2.89409 7.35697 2.57262 7.64647 2.71104C4.59153 2.94502 9.67385 2.73072 7.52546 2.62962C9.28301 2.60414 8.09746 2.55666 8.36563 2.50376C8.65192 2.44755 9.63952 2.43592 9.58716 2.37393C9.58663 2.37395 9.58609 2.37398 9.58556 2.374C8.98416 2.4076 8.37734 2.44692 7.77234 2.49522C8.37422 2.59396 7.13589 2.63786 6.69921 2.56771C6.52564 2.61292 6.35351 2.65914 6.18264 2.70664ZM9.62405 2.58848C9.56345 2.58568 8.25678 2.67899 8.34195 2.70434C8.52027 2.70583 10.3719 2.59336 9.62405 2.58848ZM15.3528 2.40371C14.8872 2.40852 14.1651 2.39222 13.9114 2.45023C14.3767 2.44195 15.103 2.45965 15.3528 2.40371ZM7.89228 11.8503C8.4788 11.7219 6.64947 11.9705 7.18594 11.9463C7.21279 11.9457 7.86511 11.8569 7.89228 11.8503ZM4.76725 2.9287C4.10074 3.00109 4.44906 3.10235 4.91788 2.97664C4.94539 2.96932 4.79856 2.9255 4.76725 2.9287ZM10.199 4.93091C10.236 4.88407 11.847 4.7087 12.1341 4.67171C11.9755 4.73119 10.1614 4.98411 10.199 4.93091ZM16.1732 2.23883C15.2408 2.09545 13.9855 2.2897 13.8453 2.28903C13.7076 2.28768 13.9223 2.21797 13.8909 2.21678C13.8207 2.21301 12.3551 2.25079 12.2823 2.25883C12.2319 2.26375 12.4985 2.34909 12.1981 2.38627C12.7869 2.31241 15.4666 2.30243 15.6035 2.29408C15.7103 2.28496 14.8988 2.19571 16.1716 2.23885C16.1721 2.23884 16.1727 2.23884 16.1732 2.23883ZM13.4999 2.27547C13.8687 2.30676 12.8377 2.33243 12.592 2.32504C12.0373 2.30653 13.4518 2.27056 13.4999 2.27547ZM11.0255 2.30673C10.9106 2.30088 9.84604 2.33618 9.7554 2.38491C10.2622 2.41603 11.2929 2.31738 11.0255 2.30673ZM0.644552 8.05881C0.606082 8.35377 0.546718 9.25733 0.599401 9.32423C0.568847 8.96238 0.671725 8.10568 0.644552 8.05881ZM15.652 3.90419C15.1976 3.9304 16.2391 3.78445 16.5431 3.76088C16.5618 3.78384 15.6919 3.90183 15.652 3.90419ZM4.59262 2.59387C4.49207 2.63531 3.76377 2.63798 2.55094 3.25434C1.93204 3.5534 1.22855 4.39169 1.0395 4.98695C0.816947 5.58069 0.776116 5.94065 0.729581 6.16935C0.71623 6.246 0.704822 6.3129 0.698744 6.35233C0.708755 6.31404 0.724049 6.24786 0.741195 6.17163C0.7965 5.94737 0.846873 5.59319 1.06851 5.01646C1.25816 4.44063 1.93067 3.62403 2.54019 3.32362C3.73461 2.70972 4.45416 2.70733 4.54266 2.65562C4.59219 2.64207 4.61499 2.59162 4.59262 2.59387ZM11.9489 2.0171C12.2553 1.95279 12.4527 2.01452 12.4926 2.01431C12.8691 2.01275 13.6517 1.98442 13.4814 2.04141C12.8152 2.03123 11.3444 2.14484 11.9489 2.0171ZM0.368862 8.30305C0.33486 8.97128 0.369983 8.65792 0.414845 8.23634C0.461115 7.8156 0.541348 7.31017 0.489197 7.45948C0.479938 7.47487 0.373286 8.16186 0.368862 8.30305ZM4.99483 2.50911C5.0051 2.50574 5.02043 2.5017 5.04057 2.49708C5.55792 2.33904 8.71558 2.12701 9.22504 2.11917C8.74643 2.22737 8.35275 2.18633 7.70142 2.23754C7.52323 2.25194 7.57363 2.28283 7.5545 2.28429C7.24938 2.30948 7.47686 2.25188 7.28612 2.26644C7.18979 2.26677 5.47032 2.46843 5.04493 2.52522C4.95605 2.53393 4.93018 2.5305 4.99483 2.50911ZM12.1234 1.97372C12.3088 1.93363 14.3867 1.87762 14.4687 1.88729C15.0934 1.93809 12.2861 1.9749 12.1234 1.97372ZM4.64912 2.49246C4.72802 2.45836 4.86279 2.422 5.02387 2.38926C5.63749 2.26291 6.53463 2.21715 5.59882 2.36541C5.52492 2.37777 5.28163 2.3918 5.02941 2.42508C4.89626 2.44268 4.76697 2.46418 4.64912 2.49246ZM0.290264 8.15531C0.257954 8.191 0.205365 9.66739 0.282297 9.74187C0.197155 9.41555 0.385587 7.42232 0.290264 8.15531ZM0.271491 7.45497C0.26878 7.4872 0.366655 7.18721 0.277659 7.80081C0.275615 7.85858 0.174727 7.91976 0.154371 8.77029C0.151461 8.94398 0.198037 9.22894 0.201124 9.2091C0.248888 8.21928 0.498033 5.92517 0.271491 7.45497ZM12.1596 1.91899C12.048 1.89409 12.3123 1.80358 12.5602 1.83951C12.6668 1.85509 12.4685 1.90958 12.1596 1.91899ZM3.56849 12.7767C3.13578 12.7788 3.60905 12.832 4.15016 12.8287C4.68433 12.8285 5.29505 12.7739 5.3485 12.7628C5.29116 12.7528 3.67748 12.8023 3.56849 12.7767ZM16.6552 3.38415C16.6546 3.38422 16.6541 3.38429 16.6536 3.38436C17.2226 3.32322 16.8763 3.40967 16.9031 3.40757C18.1139 3.31505 17.7846 3.26142 17.9717 3.22626C18.374 3.15051 18.3225 3.27341 18.9976 3.13907C17.8816 3.35264 18.901 3.19276 18.9383 3.22939C19.0869 3.37933 17.4275 3.34303 16.8712 3.44949C16.7936 3.46429 17.3785 3.44354 17.1799 3.48423C16.5295 3.61694 14.4805 3.6178 16.6552 3.38415ZM12.7472 1.82762C13.0141 1.76924 15.041 1.78303 14.5045 1.83272C14.4189 1.83797 12.3558 1.90693 12.7472 1.82762ZM20.8228 45.7124C20.4973 46.0533 21.3535 45.3719 21.4858 45.2167C21.5514 45.138 20.9645 45.5627 20.8228 45.7124ZM26.8949 40.7516C27.3223 40.3697 27.6698 39.8316 27.1432 40.326C27.0858 40.3799 26.8292 40.776 26.8949 40.7516ZM17.6649 32.7221C17.479 32.6212 17.3443 32.3051 17.3726 32.3032C17.382 32.2697 17.4917 32.4768 17.6355 32.6219C17.7216 32.7075 17.6719 32.7235 17.6649 32.7221ZM15.9625 50.447C16.0063 50.4068 16.4728 49.9132 16.4378 49.9111C16.2538 50.0759 15.6718 50.7086 15.9625 50.447ZM17.7132 32.7793C17.6749 32.7399 17.721 32.7403 17.7455 32.7395C17.7695 32.7363 17.6879 32.6927 17.5568 32.6946C17.7015 32.7342 17.7471 32.8021 17.7132 32.7793ZM3.05449 2.63563C2.85321 2.7415 2.42175 2.89979 1.89323 3.30587C1.35146 3.7035 0.904033 4.41338 0.758735 4.81573C0.71807 4.86643 0.884241 4.24372 1.50585 3.60331C2.12857 2.9721 2.82835 2.73127 3.05449 2.63563ZM24.9972 42.2936C25.3841 41.9034 24.4687 42.6408 24.5895 42.6139C24.6014 42.608 24.9826 42.3086 24.9972 42.2936ZM5.56167 22.9945C5.39314 23.3649 6.07649 22.2718 5.84342 22.5466C5.83252 22.5594 5.57104 22.9731 5.56167 22.9945ZM8.50582 18.2302C8.32365 18.4812 7.62755 19.576 7.93025 19.1708C7.97739 19.1051 8.52044 18.2684 8.50582 18.2302ZM17.9995 3.17718C17.8317 3.13361 18.762 3.03038 18.8951 3.02477C18.9472 3.02285 18.2205 3.2335 17.9995 3.17718ZM16.2962 33.9053C16.1793 34.1902 15.8399 34.9272 15.8144 35.0707C15.9594 34.7199 16.3998 33.8366 16.2962 33.9053ZM23.1068 43.9074C23.509 43.6579 24.129 43.12 23.9153 43.182C23.2361 43.7687 24.0502 43.1759 23.1068 43.9074ZM16.5864 32.5818C16.7945 32.6199 16.9602 32.5636 16.9394 32.5552C16.7328 32.4744 16.3782 32.5154 16.5864 32.5818ZM11.4921 45.7173C11.4509 45.716 11.2052 46.521 11.2639 46.4222C11.282 46.3867 11.524 45.714 11.4921 45.7173ZM6.16178 12.8853C6.55379 12.8757 5.37545 13.0436 4.99687 13.0222C4.82659 12.983 6.11781 12.8936 6.16178 12.8853ZM9.87939 31.9794C9.83841 32.0334 11.1024 32.1005 10.6092 32.0158C10.4872 31.9952 9.89385 31.9623 9.87939 31.9794ZM6.32833 21.4516C5.9388 22.2143 7.85276 19.1739 7.29011 19.9356C7.24468 19.9902 6.36017 21.3796 6.32833 21.4516ZM9.51501 16.5464C9.42771 16.6627 9.31091 16.4995 9.71191 16.0387C9.76462 15.9779 9.59537 16.3145 9.64136 16.2671C9.67126 16.2329 10.4262 15.1768 10.4595 15.1217C10.4919 15.0658 10.3995 15.0942 10.4309 15.0367C10.4639 14.9753 10.9649 14.341 11.1953 14.0052C11.6342 13.365 11.6348 13.2706 11.6702 13.2184C11.7734 13.064 11.9728 12.8302 12.1658 12.5314C12.5245 11.9814 12.9834 11.1973 13.0897 10.849C13.095 10.8392 13.0626 10.8946 13.0694 11.0991C13.0679 11.3053 13.2015 11.7078 13.4116 11.9313C13.8618 12.3685 13.8832 12.2132 13.7492 12.2127C13.4683 12.1491 12.9007 12.1378 12.5051 12.1313C13.0662 12.113 13.6402 12.1346 13.8179 12.1778C13.8544 12.1839 13.8497 12.1887 13.7715 12.1455C13.6933 12.1012 13.5089 11.9806 13.3517 11.732C13.1894 11.4833 13.1411 11.178 13.1486 11.0418C13.1537 10.892 13.1766 10.8618 13.1722 10.8761C13.1691 10.8866 13.1654 10.8986 13.161 10.9119C13.1382 10.8157 13.1003 11.0101 12.9802 11.2842C12.8653 11.5439 12.7903 11.7226 12.9827 11.2208C13.0007 11.5367 9.79373 16.1517 9.51592 16.545C9.51562 16.5455 9.51532 16.5459 9.51501 16.5464ZM28.6456 39.2956C28.4233 39.5763 29.7747 38.3702 29.8445 38.2083C29.6545 38.3633 28.6762 39.2599 28.6456 39.2956ZM22.3925 44.8793C22.3794 44.8919 22.3672 44.9054 22.355 44.9202C22.2532 45.0443 22.1599 45.2432 21.5393 45.7036C21.5387 45.7041 21.5381 45.7046 21.5375 45.7051C21.3365 45.8545 21.5322 45.645 21.4902 45.6669C21.4754 45.6733 20.8387 46.1447 21.3265 45.7073C22.0679 45.0475 21.4554 45.7181 21.861 45.3713C21.8919 45.3449 22.137 45.1056 22.3415 44.9042C22.4916 44.7563 22.6107 44.6349 22.5873 44.6465C22.5819 44.649 22.3855 44.8311 22.3218 44.8809C22.3168 44.8848 22.3126 44.8879 22.3094 44.89C22.1481 44.9961 22.1942 44.906 22.1724 44.9221C22.0993 44.974 20.9426 46.0581 20.7322 46.1706C20.6844 46.1934 21.6461 45.3172 22.2503 44.7963C22.5015 44.5785 22.6868 44.4193 22.7116 44.402C22.766 44.364 22.8148 44.4646 22.8738 44.4286C22.9058 44.4088 23.6933 43.6864 23.8096 43.6001C23.8425 43.5759 23.8682 43.5581 23.8872 43.5452C23.7418 43.6253 24.4853 42.9941 24.4863 43.0428C24.4836 43.0648 23.968 43.4935 23.9475 43.5074C23.9388 43.5135 23.9308 43.5182 23.9236 43.523C24.0536 43.4672 22.3255 44.9318 22.7371 44.662C22.2538 45.1147 22.7514 44.5331 22.3925 44.8793ZM20.1144 46.9521C20.1559 46.8994 20.198 46.8462 20.2404 46.7929C19.4245 47.5613 18.4503 48.3925 17.5459 49.2911C17.3155 49.5205 17.6271 49.3078 17.3161 49.592C17.0654 49.8217 16.756 50.0464 16.8749 49.9042C16.9019 49.8706 17.4205 49.4057 17.6639 49.1611C18.3858 48.4356 18.163 48.5746 18.2042 48.5311C18.2471 48.4866 18.7472 48.0672 19.0021 47.8279C19.6526 47.2174 19.9242 46.9174 20.8716 46.1456C20.3733 46.638 20.7126 46.4502 20.1144 46.9521ZM2.99071 28.7319C2.94679 28.6522 2.93709 27.9094 3.07925 27.4695C3.2067 27.0036 3.36434 26.6894 3.43396 26.5243C3.43905 26.563 3.33161 26.7796 3.19814 27.1575C3.06517 27.5123 2.91623 28.1951 2.99071 28.7319ZM37.5695 11.6719C37.6797 11.4588 36.5011 12.7376 36.8468 12.4324C36.9222 12.3665 37.4227 11.8343 37.5695 11.6719ZM32.2734 17.3934C32.1297 17.5736 32.7915 16.9247 32.7577 16.8908C32.7431 16.8841 32.2931 17.3689 32.2734 17.3934ZM12.234 42.8484C12.2476 42.8065 12.4973 42.2025 12.507 42.1874C12.7228 41.8092 11.9179 43.7877 12.234 42.8484ZM26.2715 24.0972C26.3115 24.016 26.3127 24.0007 26.2745 24.0457C26.2424 24.0785 26.1829 24.1833 26.2147 24.1142C26.2281 24.0743 26.2732 23.9881 26.303 23.7431C26.336 23.5224 26.2911 23.0967 26.1604 22.8095C26.0365 22.5215 25.9169 22.3882 25.9449 22.4124C25.9572 22.4337 26.1615 22.6385 26.2912 23.1208C26.3057 23.1644 26.3639 23.4694 26.3407 23.6995C26.3215 23.9422 26.269 24.0714 26.2526 24.1171C26.2113 24.2103 26.2689 24.0983 26.2715 24.0972ZM26.0904 21.6181C25.8978 21.6464 25.196 21.6794 25.2101 21.691C25.1716 21.7314 25.9895 21.6873 26.0904 21.6181ZM16.4093 32.7906C16.4365 32.8232 16.3012 32.8105 16.095 32.7845C15.7928 32.7456 15.3288 32.6812 15.1038 32.6654C15.0393 32.6052 15.6742 32.6838 16.0998 32.7469C16.2268 32.7653 16.3324 32.7813 16.4093 32.7906ZM15.5978 34.5846C17.4831 30.1787 17.1917 31.1948 15.5146 34.8595C15.4714 34.8472 15.4801 34.8624 15.5978 34.5846ZM17.1947 32.9815C17.3175 32.9567 17.6605 33.1013 17.5518 33.0602C17.5548 33.0817 17.5882 33.0989 17.5082 33.0691C17.4361 33.0428 17.2816 32.9981 17.1947 32.9815ZM39.0249 10.1907C38.868 10.4534 37.9239 11.4025 38.0646 11.2105C38.0993 11.1658 39.0776 10.0862 39.0249 10.1907ZM12.3268 42.444C12.221 42.5245 12.7825 41.1774 12.8396 41.081C13.0624 40.6852 12.3521 42.3292 12.3268 42.444ZM9.80586 32.289C9.543 32.3206 8.80455 32.2278 8.31617 32.1726C8.54634 32.1541 9.40584 32.256 9.80586 32.289ZM13.1526 32.5811C13.1236 32.5809 12.4866 32.5298 12.4571 32.5253C11.9373 32.4356 13.7427 32.5805 13.1526 32.5811ZM15.8067 2.9796C15.8281 2.97515 16.3109 2.91691 16.3276 2.91678C16.7646 2.91227 15.315 3.08686 15.8067 2.9796Z" fill="#E2EE48"/>
</svg>
