<svg width="51" height="51" viewBox="0 0 51 51" fill="none" xmlns="http://www.w3.org/2000/svg">
<path d="M9.49085 37.6792C9.48829 37.6461 9.48316 37.6079 9.4806 37.5722C9.38068 37.4906 9.28332 37.4065 9.1834 37.325C9.13472 37.4473 9.12447 37.5926 9.18852 37.669C9.23208 37.72 9.38581 37.6767 9.49085 37.6767M26.4289 13.4763C26.5724 13.4534 26.5622 13.828 26.7953 13.6369C26.9055 13.5452 26.9695 13.3999 26.844 13.3056C26.68 13.3719 26.5545 13.4254 26.4289 13.4763ZM0.843742 24.8961C0.795062 24.6387 0.764317 24.4475 0.723323 24.2182C0.495295 24.4985 0.408184 24.7126 0.843742 24.8961ZM13.8336 6.38393L13.9284 6.58272C13.9464 6.61839 13.995 6.62859 14.0232 6.59801L14.2897 6.29474L14.0847 6.13673C14.0514 6.11125 14.0002 6.11125 13.9694 6.14183L13.8644 6.23358C13.8208 6.26925 13.808 6.33297 13.8336 6.38139M31.7581 1.47812C31.9093 1.20033 31.8657 1.04233 31.6915 0.95823C31.6403 0.932745 31.5301 1.02959 31.4455 1.06781C31.5378 1.19014 31.6351 1.31501 31.7581 1.47812ZM22.4064 2.10759C22.2937 2.31911 22.1989 2.50261 22.0785 2.72942C22.6165 2.5179 22.7011 2.35225 22.4064 2.10759ZM5.08659 15.7521C4.71509 15.7088 4.65872 15.7725 4.7279 16.1319C5.03023 16.1573 5.08403 16.1013 5.08659 15.7521ZM34.1153 2.34205C33.9436 2.35734 33.8155 2.3446 33.713 2.38792C33.6413 2.4185 33.5747 2.52045 33.5618 2.602C33.5465 2.66571 33.5951 2.78039 33.6515 2.80842C33.7028 2.83391 33.8027 2.78803 33.8719 2.75236C33.9538 2.70393 34.0281 2.63767 34.0999 2.57651C34.1486 2.53828 34.1896 2.49241 34.2357 2.44909C34.1844 2.40321 34.1358 2.35989 34.1178 2.34205M23.4646 2.29618L23.5005 1.88588C23.2417 1.82981 22.9163 1.68454 22.9265 2.10249C22.9342 2.4287 23.2314 2.31657 23.462 2.29618M30.7922 0.914902C30.5411 0.960775 30.3131 0.996453 30.0902 1.04997C30.0389 1.06017 29.998 1.13662 29.9698 1.19014C29.9646 1.20798 30.0261 1.28443 30.0492 1.28188C30.4002 1.23346 30.4489 1.46792 30.4643 1.7508C30.7922 1.54692 30.7077 1.21562 30.7948 0.914902M35.6371 3.39202C35.7473 3.40476 35.9523 3.49141 36.0087 3.43025C36.1419 3.29263 36.2085 3.08876 36.2854 2.90527C36.293 2.88743 36.1701 2.77529 36.1214 2.78549C35.9497 2.82117 35.7832 2.88997 35.6371 2.93585V3.38947V3.39202ZM10.5311 8.63934C10.5567 8.58582 10.5772 8.52721 10.6054 8.47624C10.8232 8.10416 11.0076 8.07867 11.3407 8.38704C11.146 8.05574 11.3484 7.7754 11.4688 7.48233C11.4329 7.44665 11.4304 7.4441 11.3894 7.40333L10.7207 7.68621C10.8129 7.2861 10.8975 7.22493 11.0768 7.27845C11.2331 7.15867 11.3304 7.07457 11.4381 6.99812C11.4739 6.97263 11.5329 6.97263 11.5687 6.94205C11.8377 6.71779 12.0965 6.48078 12.3707 6.26416C12.5679 6.1036 12.7575 5.92776 13.0496 6.08067C13.2956 6.21319 13.6005 6.05008 13.6568 5.77485C13.685 5.63213 13.7081 5.47668 13.7747 5.34925C13.8797 5.15302 14.0463 5.21928 14.2103 5.29064C14.4408 5.38493 14.6689 5.48942 14.9123 5.54804C15.0814 5.59391 15.1864 5.49452 15.189 5.29829C15.1915 5.1046 15.2197 4.91092 15.2402 4.71978C15.2402 4.6943 15.2633 4.66116 15.2556 4.64587C15.2095 4.56942 15.1557 4.49806 15.107 4.42161C15.2633 4.33751 15.4068 4.22028 15.5707 4.1795C15.6988 4.14892 15.85 4.21773 15.9243 4.23302C16.0345 4.15147 16.1011 4.05972 16.178 4.05463C16.429 4.03424 16.6878 4.05717 16.7595 3.73097C16.8441 3.80488 16.9338 3.91446 16.9645 3.89917C17.0491 3.86094 17.1131 3.7692 17.1823 3.69784C17.3002 3.56532 17.4436 3.44809 17.5205 3.29263C17.6793 2.97917 17.9919 2.90271 18.2507 2.73451C18.6632 2.46947 19.0501 2.60709 19.4754 2.77784C19.5292 2.66061 19.6086 2.55103 19.624 2.4338C19.6573 2.1815 19.8315 2.17895 20.0211 2.15091C20.1287 2.13562 20.2389 2.07701 20.3286 2.0133C20.4054 1.95978 20.4413 1.84255 20.5207 1.80687C20.654 1.74825 20.8051 1.72787 20.9486 1.69474C20.9537 1.83491 20.9717 1.97507 20.964 2.11524C20.9588 2.24776 20.9255 2.38028 20.8999 2.53828C20.5925 2.35989 20.5463 2.58415 20.4567 2.76255C20.6437 2.87213 20.8077 2.96388 20.9691 3.06072L20.9896 3.02249C20.9614 2.98936 20.9307 2.95623 20.8794 2.89507C20.9819 2.88488 21.0588 2.87468 21.1356 2.86704C21.151 2.8441 21.1715 2.81862 21.1664 2.81352C21.0024 2.56887 21.2407 2.42106 21.3508 2.33186C21.6737 2.07701 21.5763 1.79668 21.4994 1.54438L21.9504 1.48066V1.85784C21.9734 1.86294 21.9965 1.87313 22.017 1.87823C22.1169 1.71767 22.1835 1.52399 22.3219 1.40931C22.473 1.27679 22.6831 1.19779 22.8804 1.12388C23.0418 1.06272 23.2314 1.06526 23.3852 0.991357C23.6977 0.840997 23.8284 0.874127 24.0052 1.18249C24.0411 1.24875 24.1487 1.32011 24.2102 1.31247C24.2742 1.30227 24.346 1.20543 24.3767 1.12898C24.4049 1.06272 24.3664 0.965872 24.3946 0.899612C24.4331 0.800221 24.4997 0.654958 24.5689 0.644764C24.8661 0.60144 25.1658 0.601442 25.3938 0.591248C25.4323 0.810417 25.4169 1.03723 25.5168 1.16975C25.5963 1.26914 25.8294 1.2462 26.0164 1.28188C25.9626 0.761994 26.1036 0.609087 26.5494 0.578505C26.6442 0.573408 26.7364 0.522439 26.8286 0.499503C27.1284 0.428146 27.4256 0.364435 27.751 0.293077C27.7664 0.509698 27.7535 0.647313 27.7843 0.772188C27.8074 0.861385 27.8765 0.940388 27.9329 1.01939C28.0533 1.18504 28.1635 1.36089 28.307 1.5087C28.4428 1.64886 28.6144 1.7559 28.7733 1.87568C28.8219 1.85019 28.8271 1.84765 28.8783 1.82216C28.8783 1.69474 28.8962 1.56986 28.8732 1.45008C28.8245 1.1723 28.7425 0.899613 28.7092 0.621829C28.7015 0.542826 28.804 0.389917 28.8783 0.374626C29.0679 0.331302 29.2729 0.323656 29.465 0.354238C29.7264 0.392465 29.9493 0.38737 30.1338 0.160555C30.1824 0.0993918 30.2747 0.0764543 30.4181 0C30.2268 0.355088 30.1696 0.581054 30.2465 0.677896C30.6206 0.0560674 31.0638 0.537729 31.4917 0.593796C31.9964 0.660056 32.5011 0.726315 33.0084 0.787478C33.1135 0.797672 33.257 0.754349 33.321 0.807867C33.4389 0.907257 33.59 1.05507 33.5926 1.18759C33.5977 1.48831 33.8129 1.45773 33.9872 1.52399C34.2049 1.60554 34.4714 1.65906 34.6021 1.81961C34.725 1.96997 34.6917 2.24266 34.7327 2.46183C34.743 2.51535 34.7609 2.602 34.7917 2.60964C34.9941 2.66571 35.2042 2.72432 35.4117 2.73197C35.4732 2.73452 35.5424 2.57141 35.6448 2.43634C35.7268 2.4236 35.8396 2.29618 36.042 2.31912C36.4083 2.35479 36.457 2.37263 36.3981 2.61219C36.5646 2.80078 36.7645 2.92565 36.7952 3.08621C36.8311 3.27224 36.7209 3.48377 36.6774 3.68765C36.931 3.74626 37.2359 3.36654 37.3819 3.83036C37.4742 3.82526 37.5715 3.82017 37.6689 3.80997C37.6125 3.47357 37.7458 3.25695 38.0507 3.1805C38.2274 3.13463 38.4094 3.09895 38.6118 3.05307C38.8372 3.37673 39.1626 3.69274 38.9833 4.09031C38.7911 4.14892 38.6579 4.15657 38.5656 4.22537C38.3889 4.35535 38.517 4.49806 38.6041 4.6051C38.6963 4.71468 38.7655 4.79878 38.663 4.9364C38.6425 4.95933 38.6835 5.0205 38.6861 5.06382C38.6886 5.16576 38.6861 5.26261 38.6271 5.362L38.7655 5.74682C38.8885 5.66781 39.0166 5.58881 39.1857 5.48178L38.9397 5.17341C39.0704 4.92875 39.2241 4.64333 39.3804 4.35025C39.5008 4.53374 39.5777 4.66626 39.675 4.78604C39.8928 5.04089 39.9082 5.52255 39.6802 5.71114C39.6212 5.64488 39.5597 5.57607 39.5008 5.50726C39.3966 5.5973 39.4308 5.87424 39.6033 6.33806C39.2497 6.50371 39.0832 6.80698 38.9653 7.16377C38.8654 7.45684 38.6553 7.47978 38.4068 7.28609C38.0455 7.00066 37.7073 6.69485 37.2462 6.54449C36.9566 6.45274 36.7004 6.24122 36.4263 6.09596C36.3494 6.05263 36.2572 6.04244 36.1726 6.0246C35.6448 5.93285 35.3143 5.54549 35.0325 5.28044C34.7712 5.24222 34.5944 5.20654 34.4201 5.1887C34.2741 5.17086 34.1204 5.19125 33.9769 5.16067C33.8104 5.13008 33.6515 5.06127 33.4927 5.00521C33.4465 4.99247 33.403 4.9415 33.362 4.94914C32.8035 5.03069 32.2526 4.67646 31.6889 4.91856C31.6326 4.9415 31.4968 4.88543 31.4635 4.82682C31.2483 4.47003 30.9331 4.64842 30.6462 4.65097C30.0108 4.65607 29.3754 4.64842 28.74 4.64332C28.6247 4.64332 28.5017 4.6102 28.389 4.63313C27.6869 4.7682 26.9875 4.90327 26.2906 5.06128C26.0907 5.10715 25.9114 5.23967 25.7141 5.32122C25.6296 5.35435 25.5015 5.39512 25.4348 5.35945C25.048 5.16067 24.8481 5.41552 24.6227 5.64488C24.5689 5.70094 24.4587 5.78759 24.4254 5.7723C24.0692 5.57862 23.8335 5.83092 23.5543 5.96344C23.3032 6.08322 23.029 6.15202 22.7677 6.24887C22.45 6.37119 22.1349 6.51391 21.8146 6.63368C21.5609 6.72798 21.297 6.80189 21.0434 6.89873C20.9588 6.92931 20.841 6.98792 20.8154 7.05928C20.7308 7.33197 20.5643 7.38803 20.2978 7.34216C19.9545 7.28609 19.7572 7.4441 19.5241 7.72953C19.2499 8.07103 18.8067 8.29019 18.4147 8.52465C18.0637 8.73618 17.6614 8.8636 17.3207 9.08532C16.9338 9.33507 16.5956 9.65873 16.2292 9.93651C15.8474 10.2219 15.4554 10.4972 15.0686 10.775C14.9968 10.8259 14.8918 10.8412 14.8457 10.9075C14.5971 11.2668 14.2487 11.4503 13.8362 11.5217C13.4724 11.5854 13.4211 11.9116 13.3519 12.1588C13.2495 12.5105 13.0163 12.7322 12.7652 12.9514C12.6986 13.01 12.5449 12.9717 12.4603 12.9768C12.2144 13.2623 11.9325 13.5222 11.7429 13.8306C11.3202 14.5161 10.8513 15.1507 10.2185 15.6604C10.075 15.7751 10.0263 16.0019 9.93154 16.1752C9.89823 16.2338 9.86748 16.3077 9.81624 16.3408C9.33713 16.6517 9.02711 17.0722 8.81702 17.6125C8.69916 17.9234 8.44808 18.1961 8.21492 18.451C7.84598 18.8562 7.55646 19.2894 7.40786 19.8272C7.28488 20.2782 7.00817 20.6554 6.61873 20.9357C6.35739 21.1269 6.20623 21.3715 6.21648 21.7028C6.22673 22.1157 6.10375 22.4852 5.97308 22.8828C5.7963 23.4154 5.42223 23.9302 5.5529 24.5495C5.57339 24.6412 5.54777 24.7381 5.50422 24.8196C5.13015 25.5357 5.13271 26.313 5.11221 27.0903C5.10196 27.4624 5.03535 27.837 5.04816 28.2065C5.05841 28.6219 5.04047 29.0475 5.2685 29.4324C5.31462 29.5139 5.27875 29.6362 5.30181 29.7356C5.3633 30.0389 5.41198 30.3473 5.50678 30.6403C5.63488 31.0226 5.90134 31.3845 5.9244 31.7668C5.95515 32.2408 6.34459 32.465 6.46501 32.8422C6.57005 33.1582 6.69816 33.4309 6.95437 33.645C6.79808 34.1165 7.2695 34.2668 7.42323 34.5803C7.59745 34.9345 7.70763 35.3193 7.87672 35.6736C7.95103 35.8316 8.10219 35.9514 8.22005 36.089C8.44039 36.3413 8.66073 36.5936 8.88107 36.8459C8.90669 36.8739 8.93744 36.9223 8.96562 36.9249C9.54209 36.9351 9.55747 37.455 9.77269 37.7939C9.82137 37.8678 9.87517 37.9596 9.94435 37.9901C10.4721 38.217 10.6694 38.7496 11.0384 39.1242C11.1998 39.2873 11.3919 39.4198 11.5738 39.56C11.6891 39.6441 11.8198 39.7078 11.9351 39.7894C12.1016 39.9091 12.2605 40.0442 12.4245 40.1665C12.7089 40.3806 12.9651 40.6049 13.1957 40.8878C13.4365 41.1834 13.8003 41.3771 14.1078 41.6192C14.2 41.6931 14.2743 41.795 14.3691 41.8689C14.528 41.9887 14.6996 42.0957 14.8662 42.2079C14.9302 42.2537 15.0019 42.292 15.0634 42.3404C15.1813 42.4347 15.3017 42.5341 15.4273 42.6156C15.9448 42.9469 16.4547 43.3012 16.9978 43.5891C17.1746 43.6809 17.3975 43.6911 17.5845 43.7752C17.8331 43.8899 18.0611 44.0479 18.3045 44.1753C18.3942 44.2237 18.5043 44.2365 18.5991 44.2823C18.7708 44.3588 18.9348 44.4582 19.109 44.527C19.6342 44.7283 20.1492 44.9704 20.6924 45.1055C21.3867 45.2762 22.1041 45.3552 22.8061 45.4827C23.5363 45.6152 24.264 45.7579 24.9967 45.893C25.0198 45.8955 25.0454 45.8981 25.071 45.8981C25.5143 45.8904 25.9575 45.8879 26.4008 45.8726C26.6237 45.8649 26.8466 45.8191 27.0695 45.8267C27.2719 45.8344 27.4845 45.8649 27.6741 45.9363C27.8893 46.0178 28.0687 45.9924 28.2916 45.9465C28.6554 45.8751 29.0397 45.9261 29.4164 45.9261C29.4907 45.9261 29.5675 45.9465 29.6418 45.9337C29.9416 45.8955 30.2388 45.8446 30.5386 45.8038C31.0074 45.7426 31.4763 45.7018 31.9375 45.6203C32.5549 45.5132 33.1852 45.424 33.7771 45.2329C34.5201 44.9908 35.2477 44.6901 35.9497 44.3511C36.5903 44.0402 37.2052 43.6783 37.8175 43.3139C38.0635 43.1686 38.2992 43.0106 38.5323 42.845C39.2087 42.3557 39.9005 41.8944 40.5769 41.4051C40.6999 41.3159 40.7972 41.1834 40.9125 41.0789C41.2302 40.7909 41.5812 40.5259 41.8759 40.2099C42.1654 39.8964 42.4088 39.5345 42.6599 39.1828C42.8341 38.9356 42.9648 38.6578 43.1492 38.4234C43.6745 37.7455 44.151 37.0447 44.461 36.2368C44.6558 35.7296 44.912 35.2429 45.1118 34.7383C45.3783 34.0629 45.5704 33.357 45.8728 32.7021C46.1444 32.1185 46.2443 31.5145 46.3109 30.8977C46.3647 30.3982 46.3724 29.8936 46.4211 29.3916C46.4544 29.0272 46.5287 28.6627 46.5697 28.2983C46.5876 28.1632 46.5645 28.0256 46.5671 27.8905C46.5748 27.6026 46.5902 27.3146 46.603 27.0266C46.6055 26.9603 46.6465 26.889 46.6183 26.8329C46.5235 26.629 46.4313 26.4201 46.4159 26.1958C46.3775 25.6326 46.193 25.0949 46.088 24.5418C46.0342 24.259 46.0009 23.9684 45.9573 23.683C45.9471 23.6167 45.9522 23.5173 45.9086 23.4919C45.5141 23.2421 45.6063 22.8216 45.5269 22.4623C45.5064 22.3705 45.468 22.2737 45.4218 22.1896C45.2348 21.8328 45.0401 21.4786 44.853 21.1243C44.83 21.0785 44.7967 21.002 44.7813 20.951C44.7224 20.714 44.7275 20.4541 44.6353 20.2349C44.4175 19.7354 44.1715 19.2486 43.923 18.767C43.654 18.242 43.2159 17.875 42.747 17.5361C42.4216 17.3042 42.109 17.0519 41.7631 16.8531C41.489 16.6951 41.1739 16.6161 40.8767 16.4937C40.7819 16.4555 40.6819 16.4045 40.6153 16.3306C40.4514 16.1548 40.2643 16.0809 40.0209 16.0605C39.6417 16.0325 39.2728 15.928 38.8987 15.8643C38.6118 15.8158 38.3197 15.7776 38.0327 15.7343C38.0122 15.7292 37.9892 15.7343 37.9712 15.7317C37.0309 15.6961 36.0958 15.6298 35.1555 15.6247C34.6559 15.6222 34.1486 15.6782 33.6618 15.7853C33.134 15.8974 32.6292 16.114 32.1066 16.2593C31.94 16.3052 31.7325 16.3179 31.5762 16.2618C31.1509 16.1064 30.8588 16.3485 30.5411 16.5396C30.1158 16.7919 29.6674 17.0111 29.2601 17.2863C28.9526 17.4927 28.6938 17.768 28.4069 18.0126C28.1789 18.2114 27.9431 18.4051 27.7126 18.6013C27.6946 18.6115 27.6818 18.6345 27.6639 18.637C27.0977 18.6599 26.9824 19.1849 26.6826 19.5086C26.3854 19.8348 26.0677 20.1406 25.7628 20.4617C25.5834 20.6529 25.4374 20.8797 25.2401 21.0479C24.4869 21.6875 24.0103 22.5362 23.503 23.3517C23.3262 23.6371 23.1084 23.8741 22.9163 24.1392C22.7088 24.4322 22.5627 24.7686 22.3885 25.0821C22.0913 25.6071 21.707 26.1015 21.5174 26.6622C21.1587 27.7198 20.6283 28.7239 20.4695 29.8452C20.4362 30.0771 20.531 30.332 20.4977 30.5664C20.449 30.9232 20.5643 31.2316 20.636 31.5654C20.6975 31.8789 20.8564 32.0242 21.0844 32.1822C21.1843 32.2561 21.2484 32.3962 21.2996 32.5186C21.479 32.9467 21.6019 33.3952 21.9683 33.7393C22.3116 34.0629 22.5781 34.4682 22.8958 34.8198C22.9829 34.9141 23.1494 34.9345 23.2622 35.0135C23.5286 35.1996 23.7567 35.4722 24.0487 35.5767C24.6303 35.7908 25.1735 36.168 25.8525 36.0737C26.0267 36.0508 26.2163 36.1349 26.4008 36.168C26.4648 36.1782 26.5365 36.1909 26.6032 36.1935C26.8081 36.196 27.0182 36.2037 27.2232 36.1884C27.546 36.1629 27.8817 36.1629 28.1814 36.0686C28.8706 35.8545 29.5598 35.6328 30.2132 35.3321C30.9331 34.9982 31.4891 34.4732 31.8632 33.7342C32.1783 33.1047 32.3577 32.4396 32.5908 31.7897C32.6805 31.5425 32.8035 31.2953 32.8214 31.043C32.8957 30.1332 32.8419 29.2387 32.3295 28.4334C32.1809 28.1963 32.0502 28.1811 31.8837 28.413C31.7684 28.5735 31.7094 28.7749 31.6223 28.9583C31.5275 29.1597 31.4251 29.3585 31.3277 29.5623C31.1996 29.835 31.1022 30.1204 30.9536 30.3778C30.7896 30.6531 30.5667 30.8926 30.4002 31.1653C30.2055 31.4864 30.0492 31.8279 29.8647 32.1541C29.8109 32.2459 29.7289 32.358 29.6367 32.386C29.3369 32.4752 29.0218 32.6001 28.7195 32.5874C28.2967 32.5695 27.8791 32.4498 27.4615 32.358C27.4102 32.3478 27.3846 32.2357 27.3436 32.1694C27.1924 31.9401 27.0925 31.6954 26.7543 31.6062C26.3444 31.4966 26.2368 31.4431 26.2727 30.8034C26.2778 30.6939 26.247 30.5843 26.1676 30.4798L26.4725 30.0364L26.7723 30.0644C26.8184 29.8401 26.8671 29.6464 26.8901 29.4527C26.8978 29.3686 26.8517 29.2769 26.7825 29.1953C26.9849 28.2142 27.4717 27.3171 27.9303 26.415C28.4018 25.495 28.9142 24.5928 29.3446 23.6524C29.5624 23.1758 29.8007 22.7273 30.1645 22.3552C30.3438 22.1717 30.6026 22.0673 30.8306 21.9347C30.9152 21.8863 31.0177 21.8736 31.1073 21.8303C31.5583 21.6289 31.9964 21.3919 32.4653 21.2365C32.6702 21.1651 32.9393 21.2365 33.1698 21.29C33.5593 21.3741 33.941 21.4913 34.3202 21.6034C34.4227 21.6315 34.538 21.6595 34.6174 21.7232C35.0146 22.0622 35.4911 22.0316 35.9677 22.0571C36.124 22.0647 36.2751 22.2023 36.4263 22.2788C36.5544 22.3425 36.6722 22.4266 36.8055 22.4674C37.1462 22.5668 37.5254 22.526 37.838 22.7604C37.9533 22.8471 38.1378 22.8394 38.2812 22.8955C38.827 23.107 39.3753 23.3135 39.9082 23.553C40.126 23.6473 40.3053 23.8283 40.5128 23.9531C40.6281 24.027 40.7639 24.0627 40.8869 24.1213C41.1098 24.2258 41.4096 24.2029 41.5198 24.5113C41.5428 24.575 41.6837 24.5953 41.7683 24.6438C41.9323 24.733 42.1142 24.7992 42.2448 24.9216C42.4011 25.0694 42.4985 25.2783 42.7726 25.2095C42.8059 25.2044 42.8879 25.2987 42.9084 25.3599C42.9853 25.6096 43.0468 25.8645 43.1159 26.1244C42.6522 26.364 42.6881 26.7947 42.6522 27.1999C42.6189 27.6382 42.6599 28.0842 42.4344 28.4971C42.3857 28.5812 42.478 28.7417 42.4985 28.8462C42.3268 29.1138 42.1577 29.3839 41.9784 29.6515C41.9476 29.6974 41.8656 29.7662 41.8477 29.756C41.5889 29.6108 41.4608 29.8605 41.2738 29.9293C41.1918 29.9599 41.0944 29.9522 41.0048 29.9472C40.8664 29.9395 40.7101 29.8656 40.5948 29.9038C40.2925 30.0134 40.0927 29.8962 39.8877 29.7C39.3881 29.2106 38.8552 28.7698 38.2249 28.4486C37.8944 28.2779 37.5613 28.1148 37.2026 28.0613C37.0976 28.0434 36.9592 28.2601 36.7901 28.413C37.0617 28.4716 37.2257 28.3645 37.4383 28.5047C37.7201 28.6959 37.7509 28.8844 37.7381 29.1546C37.7201 29.4706 37.7227 29.7891 37.7073 30.1052C37.6868 30.5129 37.6612 30.9181 37.6305 31.3259C37.6048 31.647 37.5792 31.9681 37.5459 32.2892C37.528 32.4523 37.4691 32.7097 37.4178 32.8652C37.241 33.3978 37.0617 33.9355 36.8695 34.4656C36.8337 34.5726 36.7568 34.7103 36.6671 34.7408C35.9472 34.988 36.1444 35.7577 35.7986 36.2088C35.6884 36.3515 35.6269 36.5171 35.6115 36.693C35.6038 36.8 35.5321 36.8816 35.4962 36.9733C35.3963 37.2383 35.2938 37.5008 35.2067 37.7684C35.1145 38.0641 34.8429 37.9978 34.6456 38.0258C34.3997 38.0615 34.292 38.1482 34.2254 38.3903C34.1896 38.5202 34 38.6018 33.8924 38.719C33.6361 38.9993 33.3415 39.2007 32.9546 39.272C32.8649 39.2899 32.806 39.4275 32.7112 39.4734C32.473 39.5931 32.2219 39.69 31.981 39.8021C31.3841 40.0748 30.7871 40.3602 30.185 40.6253C29.8724 40.7603 29.547 40.8674 29.2216 40.9744C29.1678 40.9922 29.0602 40.9744 29.0346 40.9362C28.9065 40.7501 28.7502 40.8521 28.64 40.9081C28.4607 41.0075 28.307 41.1553 28.0764 41.3312C27.9329 41.2547 27.7331 41.1528 27.5358 41.0458C27.3231 40.9336 27.172 41.0177 27.0438 41.349C26.8799 41.2573 26.7261 41.1604 26.5647 41.0763C26.4033 40.9948 26.2342 40.9209 26.1727 41.2649C25.8858 41.1299 25.6142 40.9999 25.3426 40.875C25.1351 40.7731 24.9532 40.7654 24.7379 40.9183C24.5612 41.0458 24.3383 41.0662 24.0846 41.0662C23.5312 41.0662 23.0905 40.8215 22.637 40.5998C22.4884 40.5259 22.3475 40.4443 22.2092 40.3577C21.6583 40.006 21.0998 39.6721 20.5489 39.323C20.4003 39.2287 20.2671 39.1115 20.121 39.0172C20.0109 38.9433 19.8981 38.8617 19.7752 38.826C19.4036 38.7241 19.2422 38.4004 19.004 38.1532C18.8989 38.0462 18.7964 37.9111 18.6632 37.8602C18.284 37.72 18.1226 37.771 18.1047 37.2103C17.7767 37.1593 17.5179 37.0319 17.3463 36.7159C17.1541 36.3668 16.8825 36.0609 16.6981 35.7118C16.4521 35.248 16.242 34.7663 16.0396 34.2796C15.8884 33.91 15.7424 33.5303 15.6553 33.1404C15.581 32.8167 15.5938 32.4778 15.5759 32.1439C15.5579 31.7566 15.5861 31.3641 15.5323 30.9818C15.4503 30.3982 15.3709 29.7789 15.5477 29.2514C15.686 28.8233 15.663 28.4155 15.745 28.0052C15.8218 27.6382 16.0012 27.2916 16.096 26.9272C16.1805 26.5832 16.2113 26.2238 16.2651 25.8696C16.2804 25.7829 16.2727 25.6836 16.3189 25.6147C16.634 25.1127 16.7749 24.5444 16.9261 23.9812C16.9491 23.9022 17.0004 23.8334 17.0414 23.7594C17.1311 23.5989 17.313 23.4383 17.3027 23.288C17.2745 22.7961 17.6486 22.5795 17.892 22.266C18.0406 22.0698 18.1328 21.8277 18.2481 21.606C18.2661 21.5729 18.2712 21.5295 18.2917 21.499C18.7093 20.8644 19.1244 20.2273 19.5522 19.6029C19.8495 19.1747 20.1595 18.7491 20.4925 18.3516C20.6591 18.1528 20.8435 17.9642 21.0229 17.7782C21.666 17.1207 22.2835 16.4402 22.9445 15.8057C23.3262 15.4412 23.7515 15.1278 24.164 14.8016C24.2255 14.7531 24.3357 14.7659 24.3818 14.7531C24.5791 14.5696 24.7636 14.404 24.9404 14.2307C25.2529 13.9249 25.522 13.5655 25.9652 13.4152C26.0318 13.3897 26.0677 13.275 26.1215 13.2037C26.1676 13.1425 26.206 13.0635 26.2675 13.0278C26.5135 12.8775 26.7851 12.7679 27.008 12.592C27.3231 12.3448 27.6485 12.2149 28.0636 12.2225C28.3326 12.2276 28.6144 12.1104 28.8732 12.0059C29.0449 11.932 29.1832 11.8122 29.3959 11.8912C29.4471 11.9141 29.5624 11.8326 29.6188 11.7689C29.8314 11.5319 30.2055 11.5166 30.4643 11.8122C30.5642 11.6899 30.6334 11.5522 30.7461 11.4707C30.8691 11.3764 31.0305 11.328 31.1765 11.2694C31.2944 11.2209 31.4276 11.2082 31.5403 11.1521C31.9862 10.9381 32.3577 11.0731 32.7215 11.4121C32.7778 11.3203 32.8111 11.2413 32.8624 11.1802C32.9085 11.1266 32.9726 11.0502 33.0289 11.0502C33.3825 11.0502 33.7438 11.0273 34.0871 11.0884C34.3407 11.1368 34.5329 11.0884 34.7122 10.9406C34.8762 10.8055 35.0709 10.7444 35.2093 10.9049C35.3399 11.0527 35.3451 11.2719 35.1427 11.4197C34.9915 11.5293 34.8326 11.6338 34.6789 11.7459C34.5969 11.8096 34.5226 11.8886 34.4458 11.9626C34.4637 11.988 34.4791 12.0135 34.4944 12.0416C34.6815 12.0059 34.866 11.9702 35.1068 11.9269C35.2656 12.0059 35.486 12.1155 35.7934 12.2684C35.7345 12.0772 35.7191 11.932 35.65 11.8173C35.4732 11.5293 35.5065 11.3688 35.8011 11.2388C35.8549 11.2158 35.9318 11.1827 35.942 11.1368C36.024 10.8157 36.2162 10.9432 36.3648 11.0476C36.5083 11.1496 36.6389 11.1572 36.8106 11.1572C37.1975 11.1572 37.5869 11.2311 37.9764 11.2643C38.2172 11.2847 38.4555 11.2847 38.6989 11.2974C39.1062 11.3254 39.5111 11.3535 39.9543 11.3866C39.9261 11.4936 39.9056 11.5701 39.8826 11.6542C39.8902 11.6567 39.9056 11.6797 39.9184 11.6771C40.1772 11.6491 40.4411 11.6185 40.6999 11.5879C40.8767 11.565 41.0919 11.8428 41.0714 12.118C41.1995 12.0976 41.3148 12.0823 41.4454 12.0594C41.5607 12.1868 41.6889 12.3117 41.5274 12.5283C41.489 12.5844 41.5889 12.7398 41.6274 12.8494C41.7426 12.7959 41.8708 12.7577 41.9681 12.6812C42.0168 12.6455 42.0142 12.5411 42.0399 12.434C42.191 12.5716 42.3371 12.671 42.437 12.801C42.5446 12.9386 42.6445 13.0074 42.829 13.0125C42.9058 13.0125 43.0083 13.1578 43.0468 13.2597C43.1236 13.4763 43.1672 13.6598 43.4721 13.4993C43.5643 13.4483 43.7437 13.5069 43.8615 13.5579C44.1075 13.6649 44.3893 13.642 44.584 13.9402C44.7864 14.2562 45.1887 14.4448 45.4731 14.7124C45.5166 14.7506 45.5756 14.8219 45.6089 14.8704C45.7421 15.0437 45.8805 15.194 46.129 15.1966C46.1879 15.1966 46.2878 15.2883 46.2955 15.3469C46.3442 15.6553 46.4928 15.8821 46.7516 16.058C46.7951 16.086 46.8079 16.2567 46.79 16.2644C46.5312 16.3918 46.6568 16.6008 46.6311 16.7945H46.9847C46.9873 16.7435 46.9898 16.6925 46.9924 16.6441L47.059 16.6186C47.1487 16.7817 47.2384 16.9448 47.3409 17.1258C47.861 17.2252 48.0839 17.5157 47.9916 18.0458C47.902 18.0458 47.802 18.0381 47.7072 18.0483C47.6483 18.056 47.5945 18.0967 47.5356 18.1222C47.5638 18.1808 47.5945 18.293 47.6176 18.2904C47.9891 18.2598 47.943 18.6421 48.1223 18.7976C48.2863 18.9403 48.4016 19.1391 48.5322 19.32C48.5655 19.3684 48.5886 19.4245 48.586 19.4806C48.5809 19.6411 48.6655 19.7099 48.7782 19.8221C49.0549 20.0998 49.4239 20.3674 49.3572 20.844C49.3342 20.9816 49.2676 21.1141 49.2086 21.2874C49.5212 21.3996 49.6211 21.8048 50.008 21.9067C50.277 21.9781 50.3257 22.1896 50.2642 22.4648C50.2283 22.6254 50.154 22.8216 50.3821 22.9363C50.4282 22.9618 50.482 23.0714 50.4641 23.1019C50.3078 23.3721 50.5102 23.6346 50.4615 23.8996C50.4513 23.9786 50.4846 24.0729 50.4513 24.1366C50.2335 24.5444 50.4359 24.8961 50.5742 25.2631C50.6178 25.3701 50.6485 25.4822 50.6742 25.5944C50.7485 25.9257 50.8228 26.257 50.8817 26.5908C50.8996 26.68 50.8638 26.7794 50.8509 26.8737C50.8279 27.0291 50.8048 27.1821 50.7741 27.335C50.7536 27.442 50.7126 27.5465 50.6895 27.651C50.6716 27.7223 50.6716 27.7962 50.6639 27.8701C50.6434 28.0715 50.6383 28.2779 50.5973 28.4741C50.5589 28.6653 50.5665 28.7774 50.7971 28.8054C50.874 28.8156 50.9919 28.9074 50.9995 28.9736C51.0072 29.0373 50.915 29.1367 50.8433 29.1903C50.7408 29.2667 50.6229 29.3177 50.5076 29.3788C50.7049 29.677 50.5179 29.9013 50.3795 30.0975C50.5691 30.2479 50.7433 30.3906 50.9534 30.5537C50.8099 30.6531 50.7228 30.699 50.6562 30.7652C50.6127 30.8034 50.5665 30.8926 50.5845 30.9309C50.8125 31.4635 50.6127 31.9655 50.4718 32.4676C50.377 32.8065 50.2719 33.1455 50.1207 33.4692C50.0157 33.6985 50.0029 33.9177 49.9721 34.1598C49.9286 34.4732 49.6263 34.7587 49.4264 35.0518C49.3957 35.1002 49.3393 35.1307 49.2932 35.1664C49.3214 35.1766 49.3521 35.1919 49.3803 35.2021C49.3162 35.4009 49.2906 35.6226 49.1779 35.7908C48.9217 36.1705 48.7884 36.5961 48.7398 37.0294C48.6911 37.4702 48.4221 37.7506 48.1864 38.0717C48.1069 38.1813 47.9891 38.2679 47.9353 38.3877C47.7738 38.7521 47.6509 39.1344 47.4818 39.4937C47.4049 39.6543 47.2742 39.8301 47.1205 39.9041C46.7669 40.0697 46.726 40.4367 46.5389 40.7043C46.3544 40.9693 46.2904 41.3108 46.1495 41.6039C46.1162 41.6701 45.9778 41.7339 45.8958 41.7237C45.4987 41.688 45.4372 41.739 45.4705 42.134C45.4961 42.4449 45.3194 42.7125 45.0017 42.7813C44.7403 42.8424 44.7173 43.0667 44.6558 43.2502C44.5763 43.477 44.4277 43.5662 44.2177 43.6732C43.8795 43.8414 43.4208 43.765 43.1928 44.1626C43.0852 44.3511 42.9673 44.5397 42.8367 44.713C42.788 44.7767 42.6983 44.8277 42.6189 44.8455C42.3934 44.8965 42.2474 45.0188 42.1782 45.2355C42.1295 45.3909 42.068 45.4878 41.8708 45.5209C41.7478 45.5413 41.6479 45.7248 41.5479 45.8446C41.3481 46.0765 41.2046 46.3823 40.8203 46.3695C40.7537 46.367 40.6743 46.4129 40.6486 46.474C40.4104 47.0296 39.7545 47.1239 39.4214 47.5826C39.3573 47.6718 39.1037 47.6769 38.9525 47.6412C38.4888 47.5265 38.4939 47.5112 38.2351 47.9165C38.1993 47.9751 38.1762 48.0796 38.1301 48.0872C37.4076 48.2299 36.9336 48.9002 36.1803 48.9715H36.1726C35.7268 48.8772 35.445 49.1091 35.1632 49.4175C34.8045 49.8125 34.3305 49.9833 33.7873 49.9654C33.5311 49.9552 33.2698 49.945 33.0136 49.968C32.8983 49.9782 32.7906 50.0699 32.6754 50.1133C32.6087 50.1413 32.5293 50.1744 32.455 50.1668C31.7376 50.0903 31.0305 50.2254 30.3208 50.2891C29.9493 50.3248 29.5855 50.4522 29.2114 50.4853C28.9962 50.5057 28.7733 50.4242 28.5324 50.3834C28.5709 50.6535 28.5324 50.8472 28.2634 50.9644C28.061 51.0536 27.9636 50.9619 27.8817 50.8345C27.6946 50.5516 27.4179 50.4802 27.1028 50.549C26.6621 50.6433 26.2086 50.6867 25.7705 50.5006C25.4015 50.3401 25.0505 50.3018 24.6739 50.5337C24.369 50.7172 24.0103 50.8778 23.6414 50.679C23.4543 50.5771 23.2955 50.4318 23.1289 50.2967C22.924 50.1336 22.7574 50.2024 22.6319 50.3961C22.514 50.5822 22.409 50.6663 22.1887 50.5108C22.0708 50.4293 21.894 50.4165 21.7428 50.3961C21.4405 50.3579 21.1382 50.3248 20.8333 50.3095C20.7103 50.3018 20.5822 50.3554 20.4592 50.3452C20.2953 50.335 20.1364 50.2865 19.975 50.2585C19.8751 50.2407 19.7675 50.1999 19.6778 50.2279C19.4011 50.3197 19.1884 50.2891 18.9527 50.0827C18.5453 49.7208 18.056 49.5194 17.4949 49.5169C17.4052 49.5169 17.3104 49.4557 17.2207 49.4175C17.1106 49.3742 17.0004 49.3309 16.8185 49.257C16.7877 49.1856 16.7519 49.0149 16.6468 48.9027C16.5597 48.8084 16.3855 48.7192 16.2651 48.7371C15.6322 48.8365 15.1172 48.5995 14.6023 48.2733C14.1667 47.9955 13.6927 47.7814 13.2443 47.5291C13.1111 47.4526 13.0138 47.3125 12.878 47.236C12.7652 47.1723 12.6217 47.1647 12.4962 47.1137C12.3835 47.0627 12.2426 47.0118 12.1862 46.9175C11.8275 46.316 11.1613 46.2039 10.6079 45.9185C10.5259 45.8726 10.4337 45.8191 10.385 45.7477C10.1724 45.4139 9.89311 45.1921 9.48829 45.1539C9.43961 45.1488 9.38325 45.1284 9.35506 45.0978C9.07323 44.7563 8.63255 44.5703 8.45576 44.1167C8.35328 43.8567 8.14062 43.6376 7.96384 43.4082C7.90234 43.3241 7.80499 43.2655 7.723 43.1967C7.41299 42.9444 7.09785 42.6997 6.80064 42.4372C6.7289 42.3761 6.72121 42.2461 6.68278 42.1493C6.29078 42.0422 6.15499 41.716 6.03201 41.372C5.79886 41.321 5.48628 41.3465 5.56314 40.9515C5.31206 40.7884 5.06097 40.6227 4.80732 40.4622C4.75352 40.4265 4.66128 40.4316 4.63054 40.3857C4.40507 40.0723 4.07456 39.8225 4.01051 39.4071C3.96183 39.0911 3.77992 38.8337 3.52114 38.6706C3.28031 38.5151 3.16501 38.3546 3.08559 38.0666C2.99591 37.7404 2.72433 37.4677 2.54754 37.1619C2.43737 36.9733 2.35282 36.7694 2.25034 36.5732C2.20678 36.4916 2.15042 36.4152 2.08893 36.3464C1.85065 36.0686 1.70205 35.7653 1.69436 35.383C1.6918 35.1868 1.60725 34.9676 1.49708 34.802C1.30236 34.5064 1.26649 34.1955 1.24599 33.8591C1.23574 33.6985 1.13582 33.4437 1.02053 33.408C0.628526 33.2857 0.674644 32.9314 0.62084 32.6817C0.515794 32.2204 0.53885 31.7336 0.477359 31.2596C0.431241 30.9156 0.328757 30.5766 0.257018 30.2351C0.218586 30.0364 0.19809 29.835 0.162221 29.6337C0.139162 29.4935 0.100732 29.3534 0.0802356 29.2106C0.0699871 29.1265 0.0546142 29.0246 0.0879216 28.9558C0.344132 28.4002 0.16222 27.8727 0.0289903 27.3324C-0.0196897 27.1387 0.00593196 26.9247 0.0136183 26.7208C0.0238667 26.4736 0.0699846 26.2289 0.077671 25.9843C0.0853573 25.7371 0.0520516 25.4899 0.0674242 25.2452C0.0827969 24.9623 0.116103 24.6794 0.162221 24.4017C0.218587 24.0602 0.298012 23.7187 0.369751 23.3823C0.479922 22.8904 0.582409 22.396 0.713076 21.9118C0.805312 21.5601 0.935977 21.2186 1.06664 20.8797C1.08458 20.8363 1.21012 20.8007 1.27417 20.816C1.5022 20.8618 1.61237 20.8593 1.48683 20.5739C1.43046 20.4515 1.48683 20.2782 1.46121 20.1355C1.36641 19.5443 1.5765 18.9811 1.86346 18.5376C2.13761 18.1171 2.36307 17.6533 2.69614 17.2608C2.85756 17.0722 2.93955 16.797 2.99848 16.5473C3.09071 16.1573 3.42891 16.0044 3.68768 15.7751C3.70562 15.7572 3.77736 15.8184 3.81066 15.8031C3.90546 15.7674 4.05662 15.7292 4.08225 15.6578C4.16167 15.4361 4.19242 15.194 4.24366 14.9621C4.24878 14.929 4.26415 14.8907 4.28209 14.8602C4.3692 14.7149 4.47937 14.5798 4.54086 14.4218C4.76633 13.851 4.7612 13.8484 5.37098 13.8612C5.48884 13.6624 5.57595 13.4279 5.89109 13.4228C5.95514 13.4203 6.03969 13.2215 6.07044 13.1017C6.15499 12.7449 6.19342 12.3754 6.29847 12.0237C6.34458 11.8657 6.47525 11.7128 6.60848 11.6083C6.898 11.3764 6.94412 10.8845 7.41811 10.8412C7.47448 10.8387 7.56927 10.7648 7.5744 10.7214C7.59233 10.2678 8.05607 10.1914 8.26873 9.90593C8.27898 9.88554 8.31741 9.88554 8.37377 9.87025C8.35584 9.95945 8.34303 10.0308 8.33022 10.1022C8.34815 10.1251 8.36353 10.1506 8.38146 10.1761C8.46089 10.12 8.55056 10.0767 8.61974 10.013C8.8452 9.79635 8.89901 9.52366 8.9195 9.22039C8.93744 8.97829 9.31663 8.74382 9.58053 8.75657C9.765 8.76421 9.86748 8.74892 9.8393 8.50682C9.81112 8.24942 10.0315 8.09651 10.2979 8.13474C10.0827 8.34881 10.0904 8.34881 10.3902 8.46604C10.4465 8.48898 10.4747 8.58582 10.5183 8.65208C10.2851 8.79989 10.3133 8.9477 10.6745 9.21019C10.7027 9.04709 10.754 8.91202 10.7386 8.78715C10.7335 8.73363 10.5874 8.69795 10.5054 8.65208" fill="#E2EE48"/>
</svg>
