<svg xmlns="http://www.w3.org/2000/svg" id="Calque_1" data-name="Calque 1" viewBox="0 0 1966.99 540"><defs><style>      .cls-1 {        fill: #e2ee48;        stroke-width: 0px;      }    </style></defs><path class="cls-1" d="M1412.35,250.02c-8.49-.08-15.23,6.63-15.34,15.27-.11,8.59,6.53,15.52,15,15.64,8.38.12,15.29-6.76,15.38-15.3.09-8.56-6.63-15.54-15.04-15.61M1408.83,103.71c37.72.23,69.61,8.27,98.45,27.08,31.94,20.84,53.71,49.52,64.8,85.89,11.6,38.05,11.03,76.21-2.36,113.75-14.47,40.54-41.62,70.05-80.24,88.91-31.69,15.47-65.29,19.7-100.03,15.71-36.42-4.18-68.31-18.57-95.22-43.61-17.05-15.87-29.87-34.75-37.88-56.55-17.67-48.12-16.41-95.83,5.58-142.31,13.52-28.58,34.9-50.27,62.28-66.1,28.78-16.64,56.6-22.24,84.61-22.76"></path><path class="cls-1" d="M861.17,233.66c-.03,9.37,6.7,16.28,15.92,16.35,9.42.07,16.36-6.93,16.27-16.41-.09-9.34-6.95-16.24-16.13-16.22-9.17.02-16.02,6.96-16.05,16.27M946.97,430.61c-23.89-3.33-46.87-16.41-53.24-41.23-3.63-14.13-1.59-26.96-9.43-40.37-.11-.19-.23-.38-.37-.57-6.06-8.51-19.61-3.77-19.61,6.67v7.24c0,37.59-30.47,68.06-68.06,68.06s-67.99-30.39-68.06-67.93c-.07-40.97-.12-91.32-.03-123.61.05-18.18,2.19-36.1,9.19-53.16,10.94-26.63,29.22-46.75,54.08-60.95,31.39-17.93,65.53-22.75,101.04-20.58,24.46,1.49,47.8,7.21,69.42,19.05,23.41,12.82,42.29,30.37,52.87,55.16,12.51,29.34,13.98,59.14-.35,88.58-4.86,9.99-12.15,18.03-20.84,24.85-1.7,1.33-3.4,2.67-5.48,4.31.99,1.13,1.71,2.12,2.59,2.93,1.29,1.19,2.54,2.43,3.75,3.71,26.88,28.24,40.78,87,6.33,114.94-11.54,9.36-26.62,13.79-41.47,13.76-4.08,0-8.22-.29-12.32-.87"></path><path class="cls-1" d="M1823.48,109.3c37.07-.11,67.17,29.91,67.18,66.98,0,14.89.01,29.34.03,39.81.04,19.57-2.45,38.72-9.33,57.11-10.38,27.71-28.71,48.54-55.02,62.18-4.22,2.19-8.56,4.14-13.18,6.2-3.99,1.79-6.56,5.76-6.56,10.13v11.8c0,37.01-30,67.01-67.01,67.01s-67.01-30-67.01-67.01v-11.82c0-4.45-2.67-8.46-6.78-10.17l-.07-.03c-42.03-17.49-67.16-48.59-74.74-93.51-1.59-9.41-2.48-19.05-2.56-28.59-.1-11.27-.13-26.65-.11-42.3.03-36.94,29.96-66.88,66.89-66.93,37.02-.05,67.06,29.94,67.07,66.96,0,17.51.02,34.89.05,47.15,0,4.12.25,8.33,1.13,12.33,1.73,7.93,7.69,13.07,14.83,13.52,9.06.57,16.02-5.25,17.48-14.97.55-3.64.53-7.39.53-11.09.01-12.33.02-30.01.02-47.8,0-36.91,29.88-66.86,66.79-66.97h.34Z"></path><path class="cls-1" d="M290.74,185.19c-6.81,6.91-16.12,10.39-25.75,10.21-8.94-.17-17.19-7.06-25.88-2.21-5.54,3.1-8.77,9.87-7.69,16.12,1.24,7.22,7.38,12.6,13.78,16.17,13.97,7.79,28.41,14.72,42.18,22.92,17.87,10.64,32.11,24.89,39.33,44.85,6.64,18.36,6.48,37.26,2.25,56.11-6.22,27.7-22.71,48.1-46.11,63.35-36.08,23.5-82.14,29.85-123.63,19.07-22.94-5.96-47.17-18.25-64.24-34.78-13.42-12.99-18.16-33.97-7.19-50.11,10.34-15.21,29.72-18.77,46.42-13.45,10.89,3.47,24.17,4.98,26.22-10.45,1.05-7.91-3.1-15.8-8.94-21.23-6.02-5.6-13.83-8.67-20.44-13.26-7.47-5.19-14.99-10.81-22.28-16.34-22.86-17.37-33.41-40.56-32.4-69.28,1.49-42.59,23.93-70.83,61.7-86.82,20.16-8.53,40.56-12.82,61.02-12.93,51.86-.28,100.15,25.41,101.96,55.31.57,9.39-2.68,19.01-9.86,26.29-.15.15-.3.3-.45.45"></path><path class="cls-1" d="M1060.68,426.64c-39.74-21.21-38.52-78.8,1.53-99.44,10.02-5.16,19.3-9.91,26.07-13.33,5.15-2.6,7.12-5.45,7.1-11.4-.13-32.23-.17-83.67-.17-125.22,0-36.99,29.91-67.01,66.9-67.14,37.12-.13,67.3,29.89,67.37,67,.09,45.91.19,104.9.17,141.85,0,19.68-3.37,38.67-12.68,56.22-16.44,30.99-42.27,50.07-76.16,57.79-24.64,5.61-49.38,5.04-73.53-3.4-2.17-.76-4.37-1.75-6.59-2.93"></path><path class="cls-1" d="M712.67,176.19v187.57c0,36.81-29.84,66.66-66.66,66.66s-66.66-29.84-66.66-66.66v-187.57c0-36.82,29.84-66.66,66.66-66.66s66.66,29.84,66.66,66.66"></path><path class="cls-1" d="M516.78,109.8h-152.57c-30.65,0-55.5,24.85-55.5,55.5s24.85,55.5,55.5,55.5c3.79,0,6.86,3.07,6.86,6.86v147.76c0,30.65,24.85,55.5,55.5,55.5h25.8c30.65,0,55.5-24.85,55.5-55.5v-147.76c0-3.79,3.07-6.86,6.86-6.86h2.05c30.65,0,55.5-24.85,55.5-55.5s-24.85-55.5-55.5-55.5"></path></svg>