<svg width="120" class="pull-right" viewBox="0 0 200 50" fill="none" xmlns="http://www.w3.org/2000/svg">
<path d="M52.55 17.405H72.798V21.183H64.837V42.418H60.459V21.183H52.533V17.405H52.551H52.55ZM71.933 24.307H75.675V27.802H75.745C75.869 27.308 76.099 26.832 76.435 26.372C76.77 25.914 77.175 25.472 77.652 25.102C78.1344 24.716 78.6694 24.4008 79.241 24.166C79.8078 23.9373 80.4127 23.8175 81.024 23.813C81.483 23.813 81.818 23.831 81.994 23.848C82.171 23.866 82.348 23.901 82.542 23.918V27.767C82.2551 27.7158 81.9666 27.6745 81.677 27.643C81.3899 27.6083 81.1011 27.5906 80.812 27.59C80.142 27.59 79.506 27.732 78.906 27.996C78.306 28.261 77.793 28.667 77.352 29.179C76.911 29.709 76.558 30.344 76.293 31.121C76.028 31.898 75.905 32.781 75.905 33.786V42.401H71.915V24.307H71.933ZM100.883 42.418H96.963V39.894H96.893C96.399 40.812 95.675 41.536 94.704 42.083C93.734 42.63 92.744 42.913 91.739 42.913C89.356 42.913 87.626 42.33 86.567 41.147C85.507 39.965 84.977 38.182 84.977 35.799V24.307H88.967V35.41C88.967 37 89.267 38.129 89.885 38.782C90.485 39.435 91.35 39.771 92.445 39.771C93.292 39.771 93.981 39.647 94.545 39.382C95.11 39.117 95.569 38.782 95.905 38.341C96.258 37.917 96.505 37.387 96.664 36.787C96.823 36.187 96.894 35.534 96.894 34.827V24.326H100.883V42.419V42.418ZM107.679 36.611C107.802 37.776 108.244 38.588 109.003 39.064C109.779 39.524 110.697 39.771 111.774 39.771C112.144 39.771 112.568 39.735 113.045 39.682C113.505 39.629 113.956 39.5164 114.387 39.347C114.789 39.1961 115.147 38.9472 115.428 38.623C115.693 38.305 115.816 37.899 115.798 37.387C115.781 36.876 115.587 36.452 115.234 36.134C114.881 35.799 114.44 35.552 113.892 35.34C113.282 35.1247 112.657 34.9535 112.022 34.828C111.315 34.687 110.609 34.528 109.885 34.368C109.157 34.2078 108.438 34.0075 107.732 33.768C107.067 33.5513 106.441 33.2299 105.878 32.816C105.326 32.4227 104.878 31.9015 104.572 31.297C104.237 30.68 104.078 29.921 104.078 29.003C104.078 28.014 104.325 27.203 104.801 26.531C105.28 25.8667 105.901 25.3179 106.62 24.925C107.388 24.5115 108.215 24.2197 109.073 24.06C109.973 23.901 110.838 23.813 111.65 23.813C112.586 23.813 113.486 23.919 114.334 24.113C115.157 24.2928 115.941 24.6215 116.646 25.083C117.334 25.5302 117.918 26.1202 118.358 26.813C118.818 27.52 119.1 28.385 119.223 29.391H115.057C114.863 28.438 114.44 27.785 113.751 27.467C113.063 27.132 112.268 26.973 111.386 26.973C111.103 26.973 110.768 26.99 110.38 27.043C110.007 27.0937 109.64 27.1825 109.285 27.308C108.959 27.4305 108.663 27.6235 108.42 27.873C108.19 28.12 108.067 28.438 108.067 28.843C108.067 29.338 108.244 29.726 108.579 30.026C108.914 30.326 109.356 30.574 109.903 30.786C110.45 30.98 111.068 31.156 111.774 31.297C112.48 31.439 113.204 31.597 113.945 31.757C114.669 31.915 115.375 32.127 116.081 32.357C116.787 32.587 117.405 32.904 117.952 33.31C118.496 33.7092 118.947 34.2208 119.276 34.81C119.612 35.41 119.788 36.17 119.788 37.052C119.788 38.129 119.541 39.029 119.047 39.788C118.557 40.5307 117.905 41.1524 117.14 41.606C116.328 42.0824 115.447 42.4279 114.528 42.63C113.575 42.842 112.621 42.948 111.686 42.948C110.538 42.948 109.479 42.824 108.508 42.56C107.538 42.295 106.69 41.906 105.984 41.395C105.284 40.8764 104.711 40.2064 104.307 39.435C103.901 38.658 103.689 37.723 103.654 36.646H107.679V36.611ZM120.847 24.307H123.866V18.87H127.856V24.307H131.456V27.29H127.856V36.964C127.856 37.387 127.873 37.741 127.908 38.058C127.944 38.358 128.032 38.623 128.155 38.835C128.279 39.047 128.473 39.205 128.738 39.312C129.003 39.417 129.338 39.47 129.797 39.47C130.079 39.47 130.362 39.47 130.644 39.453C130.927 39.435 131.209 39.4 131.492 39.329V42.419C131.05 42.471 130.609 42.507 130.203 42.559C129.779 42.613 129.356 42.63 128.914 42.63C127.855 42.63 127.008 42.524 126.372 42.33C125.737 42.136 125.225 41.836 124.872 41.447C124.502 41.059 124.272 40.583 124.131 40C123.993 39.3435 123.916 38.6757 123.901 38.005V27.325H120.883V24.307H120.847ZM134.281 24.307H138.058V26.761H138.128C138.694 25.701 139.47 24.961 140.477 24.501C141.483 24.042 142.56 23.813 143.742 23.813C145.172 23.813 146.408 24.06 147.467 24.572C148.498 25.0446 149.405 25.7517 150.115 26.637C150.821 27.52 151.333 28.544 151.685 29.709C152.045 30.9235 152.223 32.1844 152.215 33.451C152.215 34.669 152.056 35.851 151.739 36.981C151.421 38.129 150.944 39.135 150.309 40.018C149.673 40.9 148.861 41.588 147.873 42.118C146.884 42.648 145.737 42.913 144.395 42.913C143.809 42.9123 143.224 42.8587 142.648 42.753C142.071 42.6472 141.509 42.4757 140.971 42.242C140.436 42.0148 139.937 41.7117 139.488 41.342C139.043 40.9797 138.656 40.5511 138.341 40.071H138.271V49.109H134.281V24.307ZM148.226 33.38C148.226 32.568 148.12 31.774 147.908 30.997C147.714 30.2638 147.391 29.5708 146.955 28.95C146.543 28.3633 146.007 27.8749 145.384 27.52C144.719 27.1537 143.972 26.9653 143.213 26.973C141.536 26.973 140.265 27.555 139.417 28.72C138.57 29.885 138.147 31.439 138.147 33.38C138.147 34.298 138.252 35.146 138.482 35.922C138.712 36.699 139.029 37.37 139.488 37.935C139.929 38.5 140.459 38.941 141.077 39.259C141.695 39.594 142.418 39.753 143.23 39.753C144.148 39.753 144.907 39.559 145.543 39.188C146.16 38.8254 146.691 38.3314 147.096 37.741C147.502 37.141 147.802 36.47 147.979 35.711C148.138 34.951 148.226 34.175 148.226 33.381V33.38ZM155.269 17.405H159.259V21.183H155.269V17.405ZM155.269 24.307H159.259V42.418H155.269V24.308V24.307ZM162.824 17.405H166.814V42.418H162.824V17.405ZM179.047 42.913C177.599 42.913 176.311 42.665 175.181 42.189C174.096 41.7352 173.117 41.0622 172.304 40.212C171.509 39.3387 170.902 38.311 170.521 37.193C170.115 36.028 169.903 34.74 169.903 33.345C169.903 31.968 170.115 30.697 170.521 29.532C170.902 28.4144 171.509 27.3871 172.304 26.514C173.08 25.666 174.051 25.014 175.181 24.537C176.311 24.06 177.599 23.813 179.047 23.813C180.494 23.813 181.783 24.06 182.913 24.537C183.998 24.9908 184.977 25.6639 185.79 26.514C186.585 27.3871 187.192 28.4144 187.573 29.532C187.979 30.697 188.191 31.968 188.191 33.345C188.191 34.74 187.979 36.028 187.573 37.193C187.192 38.311 186.585 39.3387 185.79 40.212C185.013 41.059 184.042 41.712 182.913 42.189C181.783 42.665 180.494 42.913 179.047 42.913ZM179.047 39.753C179.929 39.753 180.707 39.559 181.359 39.188C181.997 38.8256 182.546 38.3251 182.966 37.723C183.389 37.123 183.689 36.434 183.901 35.675C184.095 34.916 184.201 34.139 184.201 33.345C184.201 32.568 184.095 31.809 183.901 31.033C183.72 30.2978 183.403 29.6031 182.966 28.985C182.546 28.3884 181.996 27.8938 181.359 27.538C180.706 27.167 179.929 26.973 179.047 26.973C178.164 26.973 177.387 27.167 176.734 27.538C176.101 27.8993 175.553 28.3929 175.128 28.985C174.704 29.585 174.404 30.256 174.192 31.033C173.997 31.7884 173.896 32.5649 173.892 33.345C173.892 34.139 173.998 34.916 174.192 35.675C174.387 36.435 174.704 37.123 175.128 37.723C175.552 38.323 176.081 38.817 176.734 39.188C177.387 39.576 178.164 39.753 179.047 39.753ZM189.356 24.307H192.374V18.87H196.364V24.307H199.964V27.29H196.364V36.964C196.364 37.387 196.381 37.741 196.417 38.058C196.452 38.358 196.54 38.623 196.664 38.835C196.787 39.047 196.981 39.205 197.246 39.312C197.511 39.417 197.846 39.47 198.306 39.47C198.588 39.47 198.87 39.47 199.153 39.453C199.435 39.435 199.718 39.4 200 39.329V42.419C199.559 42.471 199.117 42.507 198.711 42.559C198.288 42.613 197.864 42.63 197.423 42.63C196.363 42.63 195.516 42.524 194.881 42.33C194.245 42.136 193.733 41.836 193.381 41.447C193.01 41.059 192.781 40.583 192.639 40C192.501 39.3435 192.424 38.6757 192.409 38.005V27.325H189.391V24.307H189.356Z" fill="#191919"/>
<path d="M47.89 17.405H29.604L23.954 0L18.288 17.405L0 17.387L14.81 28.155L9.144 45.543L23.954 34.793L38.747 45.543L33.098 28.155L47.891 17.405H47.89Z" fill="#00B67A"/>
<path d="M34.369 32.092L33.098 28.155L23.954 34.793L34.369 32.092Z" fill="#005128"/>
</svg>